<svg version="1.1"
	 xmlns="http://www.w3.org/2000/svg" xmlns:xlink="http://www.w3.org/1999/xlink" xmlns:a="http://ns.adobe.com/AdobeSVGViewerExtensions/3.0/"
	 x="0px" y="0px" width="135.6px" height="134.7px" viewBox="0 0 135.6 134.7" style="enable-background:new 0 0 135.6 134.7;"
	 xml:space="preserve">
<style type="text/css">
	.st0{fill:#308ECF;}
</style>
<g>
	<path class="st0" d="M110.9,34c-11-11.5-25.9-17.9-42-17.9c-0.2,0-0.3,0-0.5,0C52.1,16.3,37,22.9,25.9,34.9
		C14.6,47.1,9.1,63.7,10.8,80.4c1.7,16.9,10.4,31.8,24.4,41.8l0.8,0.6l-1.9,2.7c-1.1,1.5-2.1,3-3.2,4.6c-0.6,0.8-0.8,1.6-0.5,2.4
		c0.3,1.2,1.1,1.9,2.3,2.2c1.2,0.2,2.1-0.1,2.8-1.1c1.2-1.7,2.4-3.3,3.5-5l1.9-2.7l0.8,0.4c18,8.7,36.3,8.7,54.2,0l0.7-0.4l0.6,0.8
		c0.1,0.1,0.1,0.2,0.2,0.3c0.5,0.7,1,1.4,1.4,2.1c1.1,1.5,2.1,3.1,3.2,4.6c0.9,1.3,2.5,1.5,3.9,0.6c1.3-0.9,1.6-2.5,0.8-3.9
		c-0.2-0.3-0.4-0.5-0.6-0.8l-4.7-6.7l0.8-0.6c13.9-9.8,22.8-25.2,24.5-42.1C128.4,63.1,122.6,46.3,110.9,34z M106.4,112.1
		c-10.1,10-23.4,15.6-37.6,15.6c0,0,0,0,0,0c-29.3,0-53.2-23.9-53.2-53.2c0-29.3,23.9-53.2,53.2-53.2c0,0,0,0,0,0
		c29.3,0,53.2,23.9,53.2,53.2C122,88.7,116.4,102,106.4,112.1z"/>
	<path class="st0" d="M10,13.5c-1.3,1.1-2.6,2.2-3.9,3.2c-3.6,2.8-5.8,7.1-6,11.6c-0.1,3.2,0.7,8,5.3,12.7L36,15.6l-0.2-0.2
		c-0.5-0.6-1-1.2-1.5-1.8c-3.2-3.8-7.6-5.8-12-5.8c-3.5,0-7,1.2-10.1,3.7C11.5,12.2,10.8,12.8,10,13.5z"/>
	<path class="st0" d="M132.2,38.7c5.2-6.6,4.4-16.1-2-21.5c-2.4-2.1-4.8-4.1-7.2-6c-3-2.4-6.5-3.5-10.4-3.3
		c-5.2,0.3-9.3,2.7-12.9,7.7L130.3,41l0.2-0.2C131.1,40.1,131.6,39.4,132.2,38.7z"/>
	<polygon class="st0" points="75.7,0 61.9,0 61.9,5.7 65.9,5.7 65.9,12 71.7,12 71.7,5.6 75.7,5.6 	"/>
	<path class="st0" d="M40.3,90.5c0.2,1,0.8,1.7,1.6,2.1c0.9,0.4,2,0.3,2.9-0.3c5.3-3.3,10.7-6.6,16-9.9l9.7-6
		c1.4-0.8,1.8-2.5,1.1-3.9c-0.1-0.2-0.3-0.5-0.4-0.7c-0.1-0.2-0.2-0.4-0.3-0.6L51.8,37c-0.6-1.1-1.6-1.7-2.6-1.7
		c-0.5,0-0.9,0.1-1.4,0.4c-1.4,0.8-1.8,2.5-0.9,4.1c2.2,4,4.5,7.9,6.7,11.9l11.9,21.1l-12.6,7.8c-3.7,2.3-7.4,4.5-11,6.8
		C40.6,88.2,40,89.3,40.3,90.5z"/>
</g>
</svg>
