<svg version="1.1"
	 xmlns="http://www.w3.org/2000/svg" xmlns:xlink="http://www.w3.org/1999/xlink" xmlns:a="http://ns.adobe.com/AdobeSVGViewerExtensions/3.0/"
	 x="0px" y="0px" width="123.1px" height="120.7px" viewBox="0 0 123.1 120.7" style="enable-background:new 0 0 123.1 120.7;"
	 xml:space="preserve">
<style type="text/css">
	.st0{fill:#308ECF;}
</style>
<g>
	<path class="st0" d="M113,93.4c8.8-13.4,12-29.1,8.8-44.2C115.1,16.5,86.4-3.9,53.6,0.6c-3.9,0.5-7.8,1.8-11.9,3.1
		C40.4,4.1,39,4.6,37.5,5l1.8,3.8c14.4-6.1,28.7-6.6,42.4-1.6c14.7,5.3,25.6,15.3,32.2,29.6c5.6,12.1,6.7,25.9,3.1,38.8
		c-3.6,12.9-11.7,24.1-22.8,31.6c-23,15.5-53.5,12.2-72.7-7.9C4.6,81.3,2.4,53.7,11,39l0.9-1.4l8.8,6.2l4.2-27.5L0,28.7
		c1.2,0.9,2.3,1.6,3.3,2.4c1.1,0.8,1.9,1.4,2.5,2c0.2,0.2,0.4,0.3,0.6,0.5c1.6,1.3,0.7,3.3,0,4.8c-0.2,0.3-0.3,0.7-0.5,1.1
		c-3.7,9.4-4.8,19.5-3.1,30c2.6,16.7,11.6,31.1,25.2,40.5c13.8,9.5,30.6,12.9,47.4,9.4C90.6,116.2,104.3,106.8,113,93.4z"/>
	<g>
		<path class="st0" d="M51.2,73.4c0,0,4.7,5,11.9,5c5,0,9.1-3,9.1-7.9c0-11.1-22.9-8.8-22.9-22.7c0-6,4.7-11.1,11.9-12v-6.1h3.6v6
			c7,0.4,10.8,4.3,10.8,4.3l-2.2,3.8c0,0-4.1-3.9-10-3.9s-9.6,3.8-9.6,7.8c0,10.4,22.9,8,22.9,22.7c0,6.3-4.5,11.5-11.9,12.2v6h-3.6
			v-6c-8.2-0.6-12.7-5.7-12.7-5.7L51.2,73.4z"/>
	</g>
</g>
</svg>
