<svg version="1.1"
	 xmlns="http://www.w3.org/2000/svg" xmlns:xlink="http://www.w3.org/1999/xlink" xmlns:a="http://ns.adobe.com/AdobeSVGViewerExtensions/3.0/"
	 x="0px" y="0px" width="168.6px" height="169px" viewBox="0 0 168.6 169" style="enable-background:new 0 0 168.6 169;"
	 xml:space="preserve">
<style type="text/css">
	.st0{fill:#308ECF;stroke:#FFFFFF;stroke-width:2;stroke-miterlimit:10;}
</style>
<g id="Vme8wj.tif_1_">
	<g>
		<path class="st0" d="M167.6,103.7c0,1.1,0,2.2,0,3.3c-3.3,0.9-6.7,1.8-10.4,2.7c0,1.3,0,3,0,4.6c0,15.6,0,31.1,0,46.7
			c0,6.4-0.5,6.8-6.9,6.8c-47.5,0-95.1,0-142.6,0c-1,0-2,0.2-2.9-0.1c-1.3-0.5-3.1-1.1-3.6-2.1c-0.5-1,0.1-3,0.9-4
			c1.7-2.2,3.7-4.1,5.8-5.9c2.4-2.1,3.2-4.5,3.2-7.7c-0.1-19.2-0.1-38.4-0.1-57.6c0-17.5,0.3-35-0.1-52.5C10.5,20,21.1,5.7,38.8,1.9
			c0.9-0.2,1.8-0.6,2.7-0.9c3.9,0,7.8,0,11.7,0c0.8,0.3,1.5,0.7,2.3,0.8c16.7,2.4,30.3,20.1,28.7,34.8c-0.8,7.4-0.1,14.9-0.1,22.9
			c7.4-3.1,14.2-6.1,21.2-8.7c1.9-0.7,4.7-0.7,6.6,0.1c11.9,4.7,23.6,9.9,35.4,14.6c3.9,1.6,6.3,3.8,7.8,7.8
			C159.1,83.5,163.4,93.6,167.6,103.7z M59.6,108.8c-1.9,0-3.3,0-4.6,0c-5.6-0.1-6.6-1.6-4.5-6.9c2.9-7.4,6.3-14.6,8.7-22.1
			c2.6-8.2,6.5-14.5,15.6-16.3c0.9-0.2,2.3-1.3,2.3-2c0.2-7.3,0.1-14.6,0.1-21.8c-20,0-39.4,0-58.7,0c0,37.1,0,73.9,0,110.6
			c13.9,0,27.5,0,41.2,0C59.6,136.4,59.6,122.8,59.6,108.8z M150.1,160.8c0-17,0-33.6,0-50.1c0-0.7-0.5-1.4-0.9-2.1
			c-1.1-1.6-2.5-2.9-3.2-4.6c-2.6-5.7-4.8-11.5-7.5-17.2c-0.9-1.8-2.5-3.7-4.3-4.5c-7.5-3.6-15.1-7-22.8-10.1
			c-1.7-0.7-4.1-0.6-5.8,0.1c-7.6,3.1-15.1,6.4-22.4,10c-1.9,0.9-3.7,2.9-4.6,4.8c-2.8,5.7-5.1,11.7-7.7,17.6
			c-0.5,1.1-1,2.6-1.9,3.1c-2.1,1.1-2.2,2.7-2.2,4.8c0,14.9,0,29.8,0,44.6c0,1.2,0.2,2.4,0.3,3.6c5.9,0,11.4,0,17.1,0
			c0-1.8,0-3.3,0-4.8c0-10.7,0.1-21.4,0-32.1c0-3.1,1.2-4.6,4.4-4.6c13.3,0,26.7,0,40,0c3.2,0,4.4,1.6,4.4,4.7
			c-0.1,11.1-0.2,22.2-0.2,33.4c0,1.2,0.2,2.4,0.3,3.6C138.9,160.8,144.2,160.8,150.1,160.8z M77,32C75.8,18,61.1,6.9,45.9,7.9
			C30.8,8.9,17.8,20.3,18.5,32C37.9,32,57.3,32,77,32z M158.8,101.4c-3.4-8.6-6.7-17-10.2-25.2c-0.7-1.7-2.4-3.4-4.1-4.2
			c-11.1-4.8-22.2-9.5-33.4-14c-1.5-0.6-3.6-0.6-5-0.1c-11.3,4.5-22.6,9.3-33.9,14.1c-1.2,0.5-2.7,1.4-3.1,2.5
			c-3.8,8.9-7.3,17.9-10.9,27c4.4,1.2,6.9,0.2,8.3-4.1c1.9-5.5,4.4-10.8,6.9-16.1c0.8-1.6,2.2-3.3,3.8-4.1
			c9.6-4.5,19.2-8.7,28.9-12.8c1.5-0.6,3.6-0.7,5,0c9.3,4,18.6,8.1,27.7,12.5c2,1,4,3,5,5c2.6,5.1,4.9,10.3,6.7,15.7
			C151.9,101.6,154.2,102.7,158.8,101.4z M13.3,159.7c0.2,0.5,0.3,0.9,0.5,1.4c14.7,0,29.3,0,44-0.1c0.8,0,1.6-1.4,2.7-2.5
			c-1.3-0.6-1.6-0.8-1.8-0.8c-13.6,0-27.2-0.1-40.8,0C16.4,157.6,14.9,158.9,13.3,159.7z M91.4,132.9c0,6.9,0,14.5,0,22.3
			c4.1-4.1,7.9-7.8,11.3-11.2C98.8,140.2,94.9,136.4,91.4,132.9z M108.2,137.7c3.9-3.7,7.7-7.5,11.6-11.2c-7.5,0-15.1,0-22.5,0
			C101,130.3,104.8,134.2,108.2,137.7z M125.6,155c0-7.6,0-15.2,0-22.2c-3.8,3.5-7.7,7.3-11.3,10.6C118,147.2,121.8,151,125.6,155z
			 M97.2,160.3c7.7,0,15,0,22.1,0c-3.7-3.9-7.3-7.6-10.6-11C105,152.9,101.2,156.5,97.2,160.3z"/>
		<path class="st0" d="M98.1,91.6c-0.1-5.4,4.9-10.5,10.3-10.5c5.3,0,10.5,5.2,10.5,10.4c0,5-5.1,10.2-10.2,10.4
			C103.5,102.1,98.2,96.9,98.1,91.6z M108.8,96.4c1.5-2.4,3.1-3.9,2.8-4.9c-0.4-1.4-2.2-2.4-3.4-3.5c-1.1,1.3-2.8,2.5-3,3.9
			C105.1,92.9,107,94.2,108.8,96.4z"/>
	</g>
</g>
</svg>
