<svg version="1.1"
	 xmlns="http://www.w3.org/2000/svg" xmlns:xlink="http://www.w3.org/1999/xlink" xmlns:a="http://ns.adobe.com/AdobeSVGViewerExtensions/3.0/"
	 x="0px" y="0px" width="213.5px" height="142.2px" viewBox="0 0 213.5 142.2" style="enable-background:new 0 0 213.5 142.2;"
	 xml:space="preserve">
<style type="text/css">
	.st0{fill:#308ECF;stroke:#FFFFFF;stroke-width:2;stroke-miterlimit:10;}
</style>
<g id="_x37_SrRDW.tif_1_">
	<g>
		<path class="st0" d="M212.5,63.9c-3.8,0.6-7.6,1.4-11.4,1.8c-2.4,0.3-4.9,0-8.2,0c0,2,0,3.8,0,5.5c0,21.1,0,42.2,0,63.4
			c0,6.1-0.5,6.5-6.5,6.5c-53.3,0-106.6,0-159.9,0c-5.9,0-6.4-0.5-6.4-6.6c0-20.6,0-41.3,0-61.9c0-2.1,0-4.2,0-6.9
			c-5.1,0-9.6,0.2-14.2-0.1c-1.7-0.1-4.2-1-4.8-2.3c-0.5-1.2,0.5-3.8,1.7-5C15.9,45,29,31.8,42.3,18.8c1.6-1.6,4.8-2.1,7.2-2.2
			c27.8-0.1,55.7-0.1,83.5-0.1c2.1,0,4.2,0,7.1,0c0-3.6,0.1-6.9,0-10.1c-0.2-3.8,1.4-5.5,5.2-5.5c7.4,0.1,14.9,0.1,22.3,0
			c4,0,5.9,1.9,5.3,5.8c-1.8,10.5,2.5,17.9,10.3,24.7c10.3,8.9,19.6,18.9,29.4,28.5C212.5,61.3,212.5,62.6,212.5,63.9z M27.6,133.5
			c52.8,0,105.3,0,157.8,0c0-22.8,0-45.1,0-67.5c-52.7,0-105.1,0-157.8,0C27.6,88.6,27.6,110.8,27.6,133.5z M147.3,8.7
			c0,2.5,0,4.8,0,7.1c0,8.3-0.1,8.3-8.2,8.3c-28.9,0-57.7,0.1-86.6-0.1c-3.8,0-6.4,1.1-9,3.8c-8.8,9.2-17.9,18-26.9,27
			c-0.8,0.8-1.5,1.9-2.4,3.1c61.8,0,123,0,185,0c-9.2-9.3-17.7-18.2-26.7-26.6c-5.2-4.8-8.5-9.8-7.1-17.1c0.3-1.7,0-3.5,0-5.5
			C159.2,8.7,153.5,8.7,147.3,8.7z"/>
		<path class="st0" d="M121.4,101.5c0,4-0.1,7.9,0,11.9c0.1,3.5-1.3,5.2-5,5.1c-6.6-0.1-13.2-0.1-19.8,0c-3.5,0.1-5.2-1.3-5.2-4.9
			c0.1-8.1-0.1-16.2,0.1-24.2c0.2-8,6.9-14.3,14.8-14.4c8.1,0,14.8,6.4,15,14.7C121.5,93.6,121.4,97.5,121.4,101.5z M114.2,111
			c0-7.4,0.3-14.3-0.1-21.2c-0.2-4.2-2.8-7-7.3-7.2c-4-0.2-7.6,2.5-7.8,6.6c-0.3,7.2-0.1,14.3-0.1,21.8
			C104.1,111,108.8,111,114.2,111z"/>
		<path class="st0" d="M170,101.1c0,4.3,0,8.6,0,12.9c0,3.1-1.5,4.5-4.6,4.5c-6.9-0.1-13.9-0.1-20.8,0c-3.1,0-4.6-1.4-4.6-4.5
			c0-8.4-0.2-16.8,0.1-25.2c0.3-7.7,7.2-13.7,14.8-13.8c7.8,0,14.5,6.3,14.9,14.3C170.2,93.2,170,97.2,170,101.1
			C170,101.1,170,101.1,170,101.1z M162.8,111c0-7.3,0.2-14-0.1-20.8c-0.2-4.2-2.5-7.1-6.9-7.6c-4.1-0.5-7.9,2-8.1,6.2
			c-0.5,7.3-0.1,14.7-0.1,22.2C152.8,111,157.5,111,162.8,111z"/>
		<path class="st0" d="M72.9,101.1c0,4.1,0,8.2,0,12.4c0,3.2-1.2,5-4.6,5c-6.9-0.1-13.9-0.1-20.8,0c-3.1,0-4.6-1.5-4.6-4.5
			c0-8.4-0.2-16.8,0.2-25.2C43.5,80.9,50.2,75,57.9,75c7.8,0,14.5,6.3,14.9,14.3C73,93.2,72.8,97.2,72.9,101.1
			C72.9,101.1,72.9,101.1,72.9,101.1z M65.5,111.1c0-7.6,0.3-14.9-0.1-22c-0.2-3.7-2.9-6.2-6.9-6.4c-4.2-0.2-7.5,1.9-7.8,5.9
			c-0.6,7.4-0.2,14.9-0.2,22.5C55.6,111.1,60.2,111.1,65.5,111.1z"/>
	</g>
</g>
</svg>
