<svg version="1.1"
	 xmlns="http://www.w3.org/2000/svg" xmlns:xlink="http://www.w3.org/1999/xlink" xmlns:a="http://ns.adobe.com/AdobeSVGViewerExtensions/3.0/"
	 x="0px" y="0px" width="213.6px" height="103.1px" viewBox="0 0 213.6 103.1" style="enable-background:new 0 0 213.6 103.1;"
	 xml:space="preserve">
<style type="text/css">
	.st0{fill:#FFFFFF;}
	.st1{fill:#001C2D;}
</style>
<g id="HFs8eO.tif_1_">
	<g>
		<g>
			<path class="st0" d="M211.6,53.6c-0.8,3.2-1.8,6.3-4,8.9c-3.8,4.5-8.7,6.3-14.5,6.3c-30.6,0-61.2,0-91.7,0
				c-2.2,0-3.6,0.7-4.6,2.8c-2.6,6.1-6.3,11.4-11.2,15.9c-12.9,11.8-28,16-45.2,12.3c-10.9-2.4-20-8-27-16.6
				C3.3,70.7-0.2,56.3,3.3,40.4c2.4-11,8.1-20.1,16.8-27c12.7-10.2,27.1-13.6,43-9.9c11.9,2.8,21.4,9.3,28.5,19.1
				c2.1,2.9,3.7,6.2,5.3,9.4c0.9,1.7,2,2.4,3.8,2.4c4.4,0,8.7-0.1,13.1,0c1.6,0,2.9-0.5,4-1.7c2.7-2.8,5.4-5.6,8.6-8.8
				c2.1,2.3,4,4.3,5.9,6.4c0.8,0.9,1.6,1.7,2.4,2.5c1,1,2.3,1.4,3.7,1.6c3.8,0.5,6.8-0.7,9.2-3.8c1.8-2.3,4.1-4.3,6.3-6.6
				c2.8,2.8,5.5,5.3,8,7.9c3.4,3.5,9,3.5,12.4,0c2.5-2.6,5-5.1,7.8-7.9c2.6,2.6,5.1,5.1,7.5,7.7c1.5,1.7,3.3,2.7,5.6,2.7
				c8,0.3,14.5,6.4,15.8,14.3c0,0.3,0.2,0.5,0.3,0.8C211.6,50.9,211.6,52.3,211.6,53.6z M126.2,32.4c-1.6,1.8-3,3.3-4.4,4.9
				c-1.9,2.1-4.4,3.1-7.2,3.1c-4.6,0-9.3,0.1-13.9,0c-4.3-0.1-7.4-2.1-9.2-6.1c-4.3-9.6-10.9-16.9-20.4-21.5
				c-15.1-7.3-30-6.4-44,2.8c-9.4,6.2-15.4,15-18,26c-3,12.6-0.7,24.2,6.6,34.7C23.1,86.9,33.3,93,46,94.8
				c18.7,2.7,37.3-7.7,45.3-25.4c2.1-4.6,5.4-6.6,10.4-6.6c30.1,0,60.3,0,90.4,0c1.1,0,2.2,0,3.3-0.1c4.7-0.4,8.6-3.7,9.8-8.3
				c1.2-4.5-0.7-9.4-4.5-12.1c-2.1-1.4-4.3-1.9-6.8-2c-2.7-0.1-5.1-1-7-3.1c-1.4-1.5-2.8-3.1-4.4-4.8c-4.1,4.3-7.7,8.1-14.1,8.1
				c-6.5,0-10.1-4-14-8c-4,4-7.4,8-13.9,8C133.9,40.6,130.3,36.8,126.2,32.4z"/>
			<path class="st1" d="M52.2,103.1c-4,0-8-0.5-12.2-1.4C28.7,99.3,19.3,93.5,12,84.5C1.3,71.3-2.3,56.3,1.4,40
				c2.5-11.4,8.4-20.9,17.5-28.2C32.1,1.1,47.2-2.3,63.6,1.5C75.8,4.3,85.8,11,93.3,21.4c1.9,2.6,3.4,5.5,4.8,8.2l0.7,1.4
				c0.5,1,1,1.3,2,1.3c0,0,0,0,0,0c3.6,0,8.3-0.1,13.1,0c1.1,0,1.8-0.3,2.5-1.1c1.9-2,3.9-4,5.9-6.1l4.1-4.2l3.3,3.5
				c1.4,1.5,2.7,3,4.1,4.4c0.7,0.7,1.4,1.4,2,2.1l0.4,0.4c0.6,0.6,1.2,0.8,2.5,1c3.2,0.4,5.4-0.5,7.4-3c1.3-1.7,2.8-3.1,4.4-4.7
				c0.7-0.7,1.4-1.4,2.1-2.1l1.4-1.4l1.4,1.4c0.9,0.9,1.7,1.7,2.6,2.5c1.9,1.8,3.7,3.6,5.4,5.4c1.3,1.3,3,2,4.8,2c0,0,0,0,0,0
				c1.8,0,3.5-0.7,4.7-2c1.7-1.7,3.4-3.5,5.2-5.3l4.1-4.1l1.4,1.5c0.8,0.8,1.5,1.6,2.3,2.3c1.7,1.8,3.5,3.6,5.2,5.4
				c1.3,1.4,2.5,2,4.2,2.1c8.7,0.3,16.2,7,17.7,15.9c0,0,0,0.1,0.1,0.1c0,0.1,0.1,0.2,0.1,0.3l0.1,0.3v4.6l-0.1,0.3
				c-0.9,3.5-2,6.8-4.4,9.7c-3.9,4.7-9.3,7-16,7c0,0,0,0,0,0c-30.6,0-61.2,0-91.7,0c0,0,0,0,0,0c-1.5,0-2.1,0.4-2.7,1.6
				C95.9,78.9,92,84.5,87,89C76.7,98.4,65,103.1,52.2,103.1z M51,4C40.3,4,30.4,7.7,21.4,14.9C13.1,21.6,7.6,30.4,5.3,40.8
				C1.9,56,5.2,69.8,15.1,82c6.7,8.3,15.4,13.6,25.8,15.9c16.3,3.5,30.9-0.4,43.4-11.8c4.5-4.1,8.1-9.2,10.7-15.2
				c1.2-2.8,3.2-4,6.4-4c0,0,0,0,0,0c30.6,0,61.2,0,91.7,0c0,0,0,0,0,0c5.5,0,9.7-1.8,12.9-5.6c1.8-2.2,2.7-4.9,3.5-7.9V50
				c-0.1-0.2-0.2-0.5-0.2-0.8c-1.2-7.1-7.1-12.4-13.9-12.6c-2.8-0.1-5-1.2-7-3.4c-1.6-1.8-3.3-3.5-5.1-5.3c-0.3-0.3-0.6-0.6-0.9-0.9
				l-1.2,1.2c-1.8,1.8-3.5,3.5-5.1,5.2c-2,2.1-4.7,3.2-7.6,3.2c0,0,0,0,0,0c-2.9,0-5.6-1.1-7.7-3.2c-1.7-1.8-3.5-3.5-5.4-5.3
				c-0.4-0.4-0.8-0.8-1.2-1.2c-0.2,0.2-0.5,0.5-0.7,0.7c-1.5,1.5-2.9,2.8-4.1,4.3c-2.9,3.6-6.5,5.1-11,4.5c-1.6-0.2-3.4-0.6-4.9-2.2
				l-0.4-0.4c-0.7-0.7-1.4-1.5-2.1-2.2c-1.3-1.4-2.7-2.9-4.1-4.4l-0.4-0.5l-1.2,1.2c-2.1,2.1-4,4.1-5.9,6.1
				c-1.5,1.6-3.2,2.3-5.3,2.3c0,0-0.1,0-0.1,0c-4.8-0.1-9.5,0-13,0c-2.6,0-4.4-1.1-5.6-3.4l-0.7-1.5c-1.3-2.6-2.7-5.4-4.4-7.7
				C83.1,14.2,73.9,8,62.7,5.4C58.7,4.5,54.8,4,51,4z M51.8,97.2c-2,0-4.1-0.1-6.1-0.4c-13.4-1.9-24-8.4-31.5-19.3
				C6.5,66.4,4.2,54.2,7.3,41.2c2.7-11.7,9.1-20.8,18.8-27.2c14.7-9.7,30.1-10.7,46-3c9.6,4.6,16.7,12.2,21.3,22.5
				c1.5,3.3,3.8,4.8,7.4,4.9c4.3,0.1,8.7,0,12.9,0l0.9,0c2.4,0,4.2-0.8,5.7-2.4c1-1,1.9-2.1,2.9-3.2l2.9-3.3l1.5,1.6
				c4.4,4.7,7.4,7.6,12.8,7.6c0,0,0,0,0,0c5.2,0,8-2.9,11.6-6.6l2.3-2.3l1.9,2c3.7,3.8,6.7,6.9,12.1,6.9c0,0,0,0,0,0
				c5.5,0,8.6-3.2,12.4-7.3l1.7-1.8l2.8,3.1c1,1.1,2,2.2,3,3.3c1.4,1.6,3.3,2.4,5.6,2.4c3.2,0.1,5.7,0.9,7.9,2.4
				c4.5,3.2,6.7,9,5.3,14.2c-1.5,5.4-6.1,9.3-11.6,9.8c-1.2,0.1-2.3,0.1-3.5,0.1l-14.6,0c-25.3,0-50.5,0-75.8,0c0,0,0,0,0,0
				c-4.2,0-6.8,1.6-8.5,5.4C85.6,86.7,69.2,97.2,51.8,97.2z M51.3,9.9c-7.9,0-15.6,2.5-23,7.4c-8.9,5.8-14.6,14.2-17.1,24.8
				c-2.8,11.9-0.7,23,6.3,33.1c6.9,9.9,16.5,15.9,28.8,17.6c17.8,2.5,35.6-7.4,43.2-24.2c2.4-5.2,6.4-7.8,12.1-7.8c0,0,0,0,0,0
				c25.3,0,50.5,0,75.8,0l14.6,0c1,0,2.1,0,3.2-0.1c3.9-0.3,7-3,8-6.8c1-3.6-0.6-7.7-3.7-9.9c-1.5-1.1-3.3-1.6-5.7-1.6
				c-3.4-0.1-6.2-1.4-8.4-3.7c-1-1.1-2-2.1-3-3.3c-3.7,3.8-7.6,7.2-14.1,7.2c0,0,0,0-0.1,0c-6.5,0-10.4-3.5-14-7.2
				c-3.6,3.6-7.4,7.2-13.9,7.2c0,0,0,0,0,0c-6.5,0-10.4-3.3-14.2-7.2l0,0c-1,1.1-2,2.2-2.9,3.3c-2.2,2.5-5.1,3.7-8.6,3.7l-0.9,0
				c-4.3,0-8.7,0.1-13,0c-5.1-0.1-8.9-2.6-11-7.2C85.5,25.7,79,18.8,70.3,14.5C63.9,11.4,57.6,9.9,51.3,9.9z"/>
		</g>
		<g>
			<path class="st0" d="M16.6,51.6c0-8.2,6.6-14.8,14.7-14.8c8.1,0,14.9,6.8,14.8,14.8c-0.1,8-6.7,14.7-14.7,14.7
				C23.3,66.4,16.6,59.8,16.6,51.6z M31.3,42.8c-4.8,0-8.8,4.2-8.8,8.9c0.1,4.7,4.1,8.7,8.9,8.7c4.8,0,8.9-4,8.8-8.9
				C40.1,46.7,36.1,42.7,31.3,42.8z"/>
			<path class="st1" d="M31.3,68.3c-4.4,0-8.6-1.7-11.8-4.8c-3.2-3.2-4.9-7.4-5-11.9l0,0c0-4.5,1.7-8.7,4.9-11.9
				c3.2-3.2,7.3-4.9,11.8-4.9c0,0,0,0,0,0c4.5,0,8.7,1.8,11.9,5c3.2,3.2,4.9,7.4,4.9,11.8C48.1,60.8,40.6,68.3,31.3,68.3
				C31.4,68.3,31.4,68.3,31.3,68.3z M31.3,38.8c-3.4,0-6.6,1.3-9,3.7c-2.4,2.4-3.8,5.6-3.7,9.1l0,0c0,3.4,1.3,6.6,3.8,9
				c2.4,2.4,5.6,3.7,8.9,3.7c0,0,0,0,0.1,0c7,0,12.7-5.7,12.8-12.7c0-3.3-1.3-6.5-3.7-9C38,40.2,34.8,38.8,31.3,38.8
				C31.3,38.8,31.3,38.8,31.3,38.8z M31.3,62.4c-5.8,0-10.7-4.9-10.8-10.6c-0.1-2.8,1.1-5.6,3.1-7.7c2-2.1,4.8-3.3,7.6-3.3h0
				c2.8,0,5.6,1.1,7.7,3.1c2.1,2,3.2,4.7,3.2,7.6c0,2.9-1.1,5.6-3.2,7.6C37,61.2,34.2,62.4,31.3,62.4C31.4,62.4,31.4,62.4,31.3,62.4
				z M31.3,44.8c-1.8,0-3.5,0.8-4.8,2.1c-1.3,1.3-2,3.1-2,4.8c0.1,3.6,3.2,6.7,6.8,6.7c0,0,0,0,0,0c1.8,0,3.5-0.7,4.8-2
				c1.3-1.3,2-3,2-4.8c0-1.8-0.7-3.5-2.1-4.8C34.8,45.5,33,44.8,31.3,44.8L31.3,44.8z"/>
		</g>
	</g>
</g>
</svg>
