<svg version="1.1"
	 xmlns="http://www.w3.org/2000/svg" xmlns:xlink="http://www.w3.org/1999/xlink" xmlns:a="http://ns.adobe.com/AdobeSVGViewerExtensions/3.0/"
	 x="0px" y="0px" width="209px" height="136.4px" viewBox="0 0 209 136.4" style="enable-background:new 0 0 209 136.4;"
	 xml:space="preserve">
<style type="text/css">
	.st0{fill:#308ECF;stroke:#FFFFFF;stroke-width:2;stroke-miterlimit:10;}
</style>
<path class="st0" d="M195.4,20.4c-0.7,1.1-1.1,1.8-1.5,2.5c-4.3,7-8.8,13.9-11.1,21.8c-2.7,8.9-5,17.9-7.1,26.9
	c-5,21.7-22.3,35.8-44.6,35.7c-4.9,0-9.7-1-14.6-1.6c-2.5-0.3-4.2,0.7-4.6,2.7c-0.4,2.2,0.8,3.9,3.3,4.4c3,0.6,6.1,1.2,9.2,1.4
	c11.9,1.1,23.3-0.4,33.7-6.6c13.9-8.2,21.7-20.6,25-36.1c2.1-9.7,3.7-19.6,8.2-28.5c4.5-8.9,9.8-17.4,14.8-26c0.5-0.8,1-1.6,1.5-2.4
	c-0.3-0.2-0.4-0.3-0.5-0.3c-16.5-1.8-32.9-3.4-49.5-1.8c-12.8,1.3-25.1,4.2-36.7,9.9c-27,13.2-38.6,46.8-25.5,74.3
	c1.6,3.3,1.6,5.8,0.1,9.2c-3.4,7.9-6.1,16.1-8.8,24.2c-1,2.9,1,5.5,3.7,5.1c2.1-0.3,2.9-1.8,3.4-3.7c5-18.3,13.1-35,24.3-50.3
	c0.4-0.5,0.9-1.1,1.5-1.3c3.5-1,7-2.2,10.5-2.9c7.4-1.4,14.8-1.1,22.2,0.3c2.9,0.5,4.8-0.4,5.3-2.6c0.5-2.4-0.8-4-3.8-4.6
	c-8.3-1.5-16.6-1.7-24.9-0.4c-0.4,0.1-0.8,0.1-1.6,0.1c0.6-0.7,1-1.1,1.3-1.5c10.1-10.8,21.6-19.6,34.9-26.1
	c0.6-0.3,1.1-0.5,1.7-0.8c2.1-1.2,2.8-3.1,1.9-5c-1-1.9-3-2.5-5.1-1.5c-7.6,3.6-14.8,8-21.5,13.1c-1.4,1.1-2.8,2.1-4.6,3.5
	c1-3.4,1.8-6.2,2.6-9c0.6-2.1-0.4-4-2.4-4.6c-1.9-0.6-3.9,0.4-4.5,2.5c-1.9,6.3-3.6,12.7-5.5,19c-0.3,0.9-0.7,1.9-1.4,2.6
	c-8.4,8.8-15.6,18.5-21.7,29.1c-0.3,0.6-0.7,1.1-1.1,1.6c-0.2-0.2-0.4-0.3-0.4-0.4c-0.2-0.4-0.3-0.8-0.5-1.1
	c-4.3-10.9-5-22-1.4-33.2c5.5-17,17.3-27.7,34.1-33.3c13.9-4.6,28.2-6.1,42.8-5.7C182.6,19.5,188.8,20.1,195.4,20.4z M75.8,53.8
	c-0.6-0.9-1-1.5-1.5-2.1C67.4,41.3,58.9,32.4,49,24.9c-2.1-1.6-4.3-1.5-5.7,0.2c-1.4,1.8-0.9,3.8,1.2,5.5c3.1,2.5,6.2,5,9.2,7.7
	c12.2,11.4,20.8,25.2,26.7,40.8c1,2.5,2.9,3.6,4.9,2.8c2.1-0.8,2.9-2.9,1.9-5.3c-1.8-4.2-3.5-8.4-5.5-12.5c-0.9-1.8-1-3.2-0.2-5.2
	c6.9-15.2,2.6-33.9-9.9-44.9C63.7,7.2,54.3,4.3,44.4,2.4C34.3,0.5,24.1,0.8,13.9,1.7C9.9,2,6,2.5,1.7,2.9C2.6,4.5,3.3,5.8,4.2,7
	c7.2,10.5,12.5,21.6,14.7,34.3c0.6,3.6,1.9,7.3,3.6,10.5c8.2,15.7,25,23.9,42.8,21.4c2.3-0.3,3.6-2,3.4-4.1c-0.2-2-1.9-3.2-4.2-3.1
	c-2.9,0.1-5.8,0.3-8.7,0.1C41.4,65.1,28.7,54,26,39.9c-2-10.4-5.1-20.4-11-29.4c-0.3-0.4-0.4-0.9-0.7-1.6c12.6-1,25-1.1,37.1,2.5
	c10.3,3.1,18.6,8.6,23.2,18.7C77.9,37.7,78.4,45.4,75.8,53.8z"/>
</svg>
