<svg version="1.1"
	 xmlns="http://www.w3.org/2000/svg" xmlns:xlink="http://www.w3.org/1999/xlink" xmlns:a="http://ns.adobe.com/AdobeSVGViewerExtensions/3.0/"
	 x="0px" y="0px" width="95.4px" height="144.4px" viewBox="0 0 95.4 144.4" style="enable-background:new 0 0 95.4 144.4;"
	 xml:space="preserve">
<style type="text/css">
	.st0{fill:#FFFFFF;}
	.st1{fill:#001C2D;}
</style>
<g>
	<g>
		<g>
			<g>
				<g>
					<path class="st0" d="M81.3,144.2l-67.3,0c-7.6,0-13.8-6.2-13.8-13.8l0-10.4c0-0.8,0.6-1.4,1.4-1.4l92,0c0.8,0,1.4,0.6,1.4,1.4
						l0,10.4C95.1,138,88.9,144.2,81.3,144.2z M3.1,121.4l0,9c0,6,4.9,10.9,10.9,11l67.3,0c6,0,10.9-4.9,11-10.9l0-9L3.1,121.4z"/>
					<path class="st1" d="M81.3,144.4C81.3,144.4,81.3,144.4,81.3,144.4l-67.3,0c-7.7,0-14-6.3-14-14L0,120c0-0.4,0.2-0.9,0.5-1.2
						c0.3-0.3,0.7-0.5,1.2-0.5c0,0,0,0,0,0l92,0c0.9,0,1.7,0.7,1.7,1.7l0,10.4C95.3,138.2,89,144.4,81.3,144.4z M81.3,143.9
						C81.3,143.9,81.3,143.9,81.3,143.9c7.5,0,13.5-6.1,13.5-13.5l0-10.4c0-0.6-0.5-1.2-1.2-1.2l-92,0c0,0,0,0,0,0
						c-0.3,0-0.6,0.1-0.8,0.3s-0.3,0.5-0.3,0.8l0,10.4c0,7.5,6.1,13.5,13.5,13.5L81.3,143.9z M81.3,141.6
						C81.3,141.6,81.3,141.6,81.3,141.6l-67.3,0c-6.2,0-11.2-5-11.2-11.2l0-9.2l89.7,0l0,9.2c0,3-1.2,5.8-3.3,7.9
						C87.1,140.5,84.3,141.6,81.3,141.6z M3.3,121.7l0,8.7c0,5.9,4.8,10.7,10.7,10.7l67.3,0c0,0,0,0,0,0c2.9,0,5.5-1.1,7.6-3.1
						s3.1-4.7,3.1-7.6l0-8.7L3.3,121.7z"/>
				</g>
			</g>
			<g>
				<g>
					<path class="st0" d="M93.7,73.2l-92,0c-0.8,0-1.4-0.6-1.4-1.4l0-9.5c0-7.6,6.2-13.8,13.8-13.8l67.3,0c7.6,0,13.8,6.2,13.8,13.8
						l0,9.5C95.1,72.5,94.5,73.2,93.7,73.2z M3.1,70.3l89.2,0l0-8.1c0-6-4.9-10.9-10.9-11l-67.3,0c-6,0-10.9,4.9-10.9,10.9L3.1,70.3
						z"/>
					<path class="st1" d="M93.7,73.4l-92,0c-0.4,0-0.9-0.2-1.2-0.5C0.2,72.6,0,72.2,0,71.7l0-9.5c0-7.7,6.3-14,14-14c0,0,0,0,0,0
						l67.3,0c3.7,0,7.3,1.5,9.9,4.1c2.7,2.7,4.1,6.2,4.1,9.9l0,9.5C95.4,72.7,94.6,73.4,93.7,73.4z M14.1,48.7
						c-7.4,0-13.5,6.1-13.5,13.5l0,9.5c0,0.3,0.1,0.6,0.3,0.8s0.5,0.3,0.8,0.3l92,0c0.6,0,1.2-0.5,1.2-1.2l0-9.5c0-3.6-1.4-7-4-9.6
						c-2.6-2.6-5.9-4-9.6-4L14.1,48.7C14.1,48.7,14.1,48.7,14.1,48.7z M92.5,70.6l-89.7,0l0-8.3c0-3,1.2-5.8,3.3-7.9
						c2.1-2.1,4.9-3.3,7.9-3.3c0,0,0,0,0,0l67.3,0c3,0,5.8,1.2,7.9,3.3c2.1,2.1,3.3,4.9,3.3,7.9L92.5,70.6z M3.4,70.1l88.7,0l0-7.8
						c0-2.9-1.1-5.5-3.1-7.6c-2-2-4.7-3.1-7.6-3.1l-67.3,0c0,0,0,0,0,0c-2.8,0-5.5,1.1-7.6,3.1c-2,2-3.1,4.7-3.1,7.6L3.4,70.1z"/>
				</g>
			</g>
			<g>
				<g>
					<rect x="0.3" y="66.9" class="st0" width="2.8" height="60.1"/>
					<path class="st1" d="M3.3,127.3l-3.3,0l0-60.6l3.3,0L3.3,127.3z M0.5,126.8l2.3,0l0-59.6l-2.3,0L0.5,126.8z"/>
				</g>
			</g>
			<g>
				<g>
					<rect x="92.3" y="65.2" class="st0" width="2.8" height="60.1"/>
					<path class="st1" d="M95.3,125.5l-3.3,0l0-60.6l3.3,0L95.3,125.5z M92.6,125l2.3,0l0-59.6l-2.3,0L92.6,125z"/>
				</g>
			</g>
		</g>
		<g>
			<g>
				<path class="st0" d="M79.8,51.3l-64.2,0c-0.8,0-1.4-0.6-1.4-1.4l0-19.3c0-16.7,13.6-30.3,30.3-30.3l6.4,0
					c16.7,0,30.3,13.6,30.3,30.3l0,19.3C81.2,50.7,80.6,51.3,79.8,51.3z M17,48.5l61.3,0l0-17.9c0-15.1-12.3-27.5-27.5-27.5l-6.4,0
					C29.4,3.1,17,15.4,17,30.5L17,48.5z"/>
				<path class="st1" d="M79.8,51.5l-64.2,0c-0.9,0-1.7-0.7-1.7-1.7l0-19.3C14,13.7,27.7,0,44.5,0c0,0,0,0,0,0l6.4,0
					c16.8,0,30.5,13.7,30.5,30.5l0,19.3C81.5,50.8,80.7,51.5,79.8,51.5z M44.5,0.5c-16.6,0-30,13.5-30,30l0,19.3
					c0,0.6,0.5,1.2,1.2,1.2l64.2,0c0.6,0,1.2-0.5,1.2-1.2l0-19.3c0-16.6-13.5-30-30-30L44.5,0.5C44.5,0.5,44.5,0.5,44.5,0.5z
					 M78.6,48.7l-61.8,0l0-18.2c0-7.4,2.9-14.3,8.1-19.6c5.2-5.2,12.2-8.1,19.6-8.1c0,0,0,0,0,0l6.4,0c7.4,0,14.3,2.9,19.6,8.1
					c5.2,5.2,8.1,12.2,8.1,19.6L78.6,48.7z M17.3,48.2l60.8,0l0-17.7c0-7.3-2.8-14.1-8-19.2c-5.1-5.1-12-8-19.2-8l-6.4,0
					c0,0,0,0,0,0c-7.3,0-14.1,2.8-19.2,8c-5.1,5.1-8,12-8,19.2L17.3,48.2z"/>
			</g>
		</g>
	</g>
	<g>
		<g>
			<path class="st0" d="M19.2,112.1c0-12.7,18.5-14.3,18.5-24.1c0-4-3-6.9-7.5-6.9c-5.3,0-8.1,4.9-8.1,4.9l-2.7-1.8
				c0,0,3.3-6.5,10.9-6.5c6.9,0,11,4.5,11,10.1c0,12.1-18.2,13.8-18.3,23.4l18.8,0l0,3.2l-22.5,0C19.2,113.6,19.2,112.9,19.2,112.1z
				"/>
			<path class="st1" d="M42.2,114.7l-23,0l0-0.2c-0.1-0.8-0.2-1.5-0.2-2.4l0,0c0-6.9,5.5-10.7,10.3-14c4.2-2.9,8.2-5.7,8.2-10.1
				c0-3.9-3-6.7-7.2-6.7c0,0,0,0,0,0c-5.1,0-7.8,4.8-7.8,4.8l-0.1,0.2l-3.1-2.1l0.1-0.2c0-0.1,3.4-6.7,11.2-6.7c0,0,0,0,0,0
				c6.6,0,11.2,4.3,11.2,10.4c0,6.6-5.1,10-10,13.4c-4.1,2.8-8.1,5.5-8.2,9.8l18.8,0L42.2,114.7z M19.6,114.2l22.1,0l0-2.7l-18.8,0
				l0-0.3c0-4.7,4.1-7.5,8.5-10.4c4.8-3.3,9.8-6.7,9.8-13c0-5.9-4.3-9.9-10.7-9.9c0,0,0,0,0,0c-6.7,0-10,5.1-10.6,6.2l2.3,1.5
				c0.6-1,3.4-4.8,8.1-4.8c0,0,0,0,0,0c4.6,0,7.7,3,7.7,7.2c0,4.7-4.1,7.5-8.5,10.5c-4.9,3.4-10,6.9-10,13.6
				C19.4,112.9,19.5,113.5,19.6,114.2z"/>
		</g>
		<g>
			<path class="st0" d="M57.9,95.6L47.5,78.4l4.2,0L57.9,89c1.1,1.8,2.4,4.2,2.4,4.2h0.1c0,0,1-2.3,2.2-4.2l6.4-10.7l4.2,0
				L62.6,95.6l11.5,18.9l-4.1,0L62.5,102c-1.1-1.9-2.3-4-2.3-4h-0.1c0,0-1.1,2.2-2.2,4.1l-7.4,12.4l-4.1,0L57.9,95.6z"/>
			<path class="st1" d="M74.6,114.7l-4.7,0l-0.1-0.1l-7.5-12.5c-0.9-1.4-1.7-3-2.1-3.7c-0.3,0.7-1.2,2.3-2,3.7l-7.5,12.5l-4.7,0
				l11.7-19.1L47,78.1l4.7,0l0.1,0.1l6.3,10.7c0.8,1.4,1.8,3.1,2.2,3.8c0.3-0.7,1.1-2.4,2-3.8l6.4-10.8l4.8,0L62.9,95.6L74.6,114.7z
				 M70.1,114.2l3.5,0L62.3,95.6l10.4-17l-3.6,0l-6.3,10.6c-1.1,1.8-2.1,4.1-2.1,4.1l-0.1,0.1h-0.4l-0.1-0.1c0,0-1.3-2.3-2.4-4.2
				l-6.2-10.6l-3.6,0l10.3,17l-0.1,0.1l-11.3,18.5l3.5,0l7.3-12.3c1.1-1.9,2.2-4,2.2-4l0.1-0.1h0.4l0.1,0.1c0,0,1.1,2.2,2.2,4
				L70.1,114.2z"/>
		</g>
	</g>
</g>
</svg>
