<svg version="1.1"
	 xmlns="http://www.w3.org/2000/svg" xmlns:xlink="http://www.w3.org/1999/xlink" xmlns:a="http://ns.adobe.com/AdobeSVGViewerExtensions/3.0/"
	 x="0px" y="0px" width="155.9px" height="177.1px" viewBox="0 0 155.9 177.1" style="enable-background:new 0 0 155.9 177.1;"
	 xml:space="preserve">
<style type="text/css">
	.st0{fill:#FFFFFF;}
	.st1{fill:#001C2D;}
</style>
<g>
	<g id="_x34_UedjX.tif_1_">
		<g>
			<g>
				<path class="st0" d="M130.8,118c4.4,5.6,8.6,11,12.8,16.4c3.5,4.5,7.1,8.9,10.5,13.5c0.5,0.7,0.9,2,0.6,2.7
					c-0.2,0.5-1.6,0.9-2.5,0.8c-7.4-0.4-14.8-0.9-22.2-1.3c-0.6,0-1.2-0.1-2-0.1c-0.7,3.8-1.4,7.6-2.1,11.4
					c-0.8,4.2-1.5,8.4-2.3,12.6c-0.2,0.8-0.9,2-1.6,2.1c-0.7,0.2-1.8-0.6-2.3-1.2c-6.6-8.3-13.2-16.7-19.7-25.1
					c-0.3-0.4-0.7-0.9-1.3-1.6c-0.2,0.4-0.3,0.6-0.5,0.9c-0.9,1.7-2.1,1.6-3.7,0.8c-4.2-2.1-8.4-4.2-12.6-6.3
					c-1-0.5-1.7-0.5-2.6,0.1c-4,2.6-8.1,5-12.1,7.6c-1.5,0.9-2.5,0.8-3.6-0.6c-1.4-1.8-2.8-3.5-4.4-5.4c-2,2.6-4,5-5.9,7.5
					c-5.7,7.3-11.4,14.6-17.2,21.9c-0.6,0.7-1.8,1.5-2.4,1.3c-0.7-0.2-1.4-1.4-1.6-2.3c-1.5-7.6-2.8-15.1-4.2-22.7
					c-0.1-0.3-0.2-0.6-0.3-1c-2.4,0.1-4.8,0.3-7.3,0.4c-5.6,0.3-11.2,0.8-16.8,1c-0.8,0-2.3-0.4-2.5-0.9c-0.3-0.8,0.1-2,0.7-2.7
					c6.5-8.4,13.1-16.8,19.6-25.2c0.4-0.5,0.7-1,1.1-1.6c-2.5-0.7-4.8-1.5-7.2-2.1c-1.7-0.4-2.2-1.4-2-3.1c0.7-4.5,1.3-8.9,2.1-13.4
					c0.2-1.5,0-2.6-1.3-3.6c-3.5-2.8-6.9-5.7-10.3-8.6c-1.9-1.6-2-1.9-0.6-4.1c2.5-3.9,4.9-7.9,7.5-11.8c0.6-0.9,0.6-1.7,0.1-2.7
					c-2.1-4.3-4.1-8.6-6.2-12.8c-0.8-1.6-0.5-2.6,1-3.5c4-2.6,7.9-5.3,11.9-7.9c0.9-0.6,1.3-1.2,1.2-2.4c-0.2-4.8-0.3-9.5-0.5-14.3
					c-0.1-1.7,0.5-2.6,2.3-2.8c4.7-0.7,9.4-1.7,14.1-2.4c1.2-0.2,1.7-0.8,2.2-1.8c1.7-4.3,3.4-8.5,5.2-12.7c0.9-2.3,1.4-2.5,3.7-1.9
					c4.4,1.1,8.8,2.2,13.1,3.4c1.4,0.4,2.3,0.1,3.4-0.9c3.2-3.2,6.5-6.3,9.8-9.4c1.7-1.6,2.1-1.6,4-0.1C79.7,5,83.4,7.8,87,10.8
					c0.9,0.8,1.7,0.8,2.8,0.4c4.4-1.6,8.9-3.1,13.3-4.8c1.7-0.7,2.7-0.2,3.5,1.4c2.1,4.3,4.3,8.5,6.6,12.6c0.4,0.6,1.3,1.3,2,1.3
					c4.7,0.5,9.5,0.8,14.3,1.1c1.9,0.1,2.6,0.9,2.7,2.7c0.2,4.6,0.6,9.2,0.8,13.7c0.1,1.4,0.5,2.2,1.8,2.8c4.1,2.1,8.2,4.4,12.3,6.5
					c1.6,0.8,2,1.9,1.3,3.6c-1.7,4.4-3.3,8.8-5,13.2c-0.4,1.1-0.4,1.8,0.4,2.8c2.9,3.6,5.6,7.2,8.4,10.9c1.7,2.2,1.6,2.4-0.3,4.4
					c-3.1,3.2-6.2,6.4-9.4,9.6c-0.9,0.9-1.2,1.7-0.9,3c1.2,4.3,2.1,8.7,3.2,13c0.7,2.8,0.6,3.1-2,4.1
					C138.9,114.7,135,116.3,130.8,118z M122.2,132.9c0.2-0.5,0.3-0.8,0.4-1.1c0.8-4.3,1.6-8.6,2.3-13c0.3-1.9,1.1-3,3-3.7
					c4.5-1.6,8.9-3.5,13.4-5.2c-0.1-0.7-0.2-1.3-0.4-1.9c-1-4.2-2-8.3-3.1-12.4c-0.4-1.6-0.2-2.8,1.1-3.9c3.6-3.3,7.2-6.6,10.8-10
					c-2.8-3.6-5-6.9-7.6-9.7c-2.8-2.9-3.4-5.7-1.5-9.4c1.7-3.4,2.8-7.2,4.1-10.8c-0.2-0.3-0.3-0.4-0.4-0.4c-3.2-1.7-6.3-3.4-9.5-5.1
					c-5.1-2.8-5.1-2.8-5.4-8.5c-0.2-3.7-0.5-7.4-0.7-11.1c-0.9-0.1-1.7-0.2-2.4-0.3c-4-0.3-8-0.6-12.1-0.8c-1.8-0.1-2.9-0.7-3.7-2.4
					c-1.4-3-3-5.9-4.5-8.8c-0.7-1.4-1.5-2.8-2.2-4.2C99,11.8,94.4,13.3,90,15c-1.8,0.7-3,0.5-4.5-0.7c-3.7-3.1-7.5-6-11.3-9
					c-3.7,3.5-7.3,6.9-10.8,10.4c-1.1,1-2.1,1.3-3.5,0.9c-4.3-1.1-8.6-2.2-12.9-3.4c-1.3-0.4-1.8,0-2.3,1.2c-1.6,4.2-3.4,8.3-5,12.4
					c-0.5,1.3-1.2,1.9-2.6,2.2c-4.9,0.8-9.9,1.7-14.9,2.5c0,0.7,0,1.3,0,1.9c0.1,4.3,0.2,8.7,0.4,13c0.1,1.6-0.5,2.6-1.8,3.4
					c-4.1,2.6-8.1,5.4-12.3,8.1c0.3,0.7,0.5,1.2,0.8,1.8c1.9,3.9,3.7,7.8,5.7,11.7c0.7,1.4,0.7,2.4-0.2,3.7c-2.7,4.1-5.3,8.3-8,12.6
					c3.6,3.1,7.2,6.2,10.8,9.1c1.6,1.3,2.4,2.5,1.8,4.7c-0.4,1.4-0.5,2.9-0.7,4.3c-0.5,3.2-0.9,6.5-1.4,9.8c4.7,1.4,9.2,2.8,13.8,4
					c2,0.5,2.9,1.5,3.4,3.5c1.1,4.5,2.5,9,3.8,13.7c0.9-0.1,1.7-0.2,2.5-0.3c4.2-0.6,8.4-1.1,12.5-1.7c1.4-0.2,2.4,0.2,3.3,1.4
					c3.1,3.9,6.3,7.6,9.5,11.5c4.3-2.7,8.5-5.2,12.7-7.9c1.3-0.8,2.4-1,3.7-0.2c1.9,1.1,3.9,2,5.9,3c2.5,1.2,5,2.5,7.5,3.7
					c2.6-3.8,5.2-7.3,7.5-11.1c1.4-2.4,3.1-3.1,5.8-2.9C113.4,132.7,117.8,132.7,122.2,132.9z M35.2,170.1
					c7.4-9.5,14.5-18.5,21.6-27.6c-0.9-1.1-1.6-2.2-2.6-3.1c-0.4-0.4-1.3-0.8-1.8-0.7c-4.7,0.6-9.4,1.2-14.2,1.9
					c-2.3,0.3-2.8,0.1-3.4-2.1c-1.3-4.5-2.7-9-3.7-13.6c-0.5-2.2-2.3-2-3.7-2.3c-0.6-0.2-1.6,0.5-2.1,1.1
					c-5.3,6.7-10.6,13.4-15.8,20.2c-0.9,1.1-1.8,2.3-2.8,3.6c0.8,0,1.2,0,1.7,0c6.5-0.4,13-0.8,19.6-1.2c2.7-0.2,2.9,0.1,3.4,2.8
					C32.6,155.9,33.8,162.8,35.2,170.1z M128.3,120.8c-0.8,4.6-1.6,8.8-2.3,12.9c-0.5,2.8-0.8,3.1-3.5,3c-4.6-0.2-9.2-0.5-13.7-0.6
					c-0.7,0-1.6,0.3-2,0.8c-1.9,2.6-3.7,5.4-5.6,8.2c6.5,8.3,12.9,16.5,19.6,25c1.3-7.4,2.6-14.3,3.9-21.2c0.4-2.4,0.8-2.7,3.3-2.6
					c3,0.2,6,0.4,9,0.6c4.1,0.3,8.1,0.5,12.6,0.8C142.3,138.5,135.4,129.8,128.3,120.8z"/>
				<path class="st1" d="M122,177.1c-1.1,0-2.4-0.9-2.9-1.6c-5.2-6.6-10.5-13.3-15.5-19.8l-4.2-5.3c-0.1-0.1-0.2-0.3-0.3-0.4
					c-1.1,1.6-2.7,1.9-4.8,0.9c-2-1-4.1-2-6.1-3.1c-2.2-1.1-4.4-2.2-6.5-3.3c-0.7-0.4-1-0.3-1.7,0.1c-2.1,1.3-4.2,2.6-6.3,3.9
					c-2,1.2-3.9,2.4-5.9,3.7c-1.9,1.2-3.6,1-5-0.8c-0.9-1.2-1.9-2.4-3-3.6c-0.2-0.2-0.4-0.5-0.6-0.8l-9,11.4
					c-4.4,5.6-8.9,11.3-13.4,17c-0.7,0.9-2.3,2-3.5,1.7c-1.2-0.3-2.1-2-2.3-3.1c-1.1-5.5-2.1-11.2-3.1-16.6l-1.1-6.1
					c0-0.1,0-0.1,0-0.2l-1.6,0.1c-1.6,0.1-3.3,0.2-4.9,0.3c-1.7,0.1-3.3,0.2-5,0.3c-3.9,0.3-7.9,0.5-11.8,0.7c-0.8,0-3-0.3-3.4-1.6
					c-0.4-1.2,0.1-2.8,0.8-3.7c5-6.5,10.1-13,15.1-19.3l4.6-5.9c0.1-0.1,0.2-0.3,0.3-0.4c-0.3-0.1-0.6-0.2-0.9-0.3
					c-1.7-0.5-3.3-1-4.9-1.4c-2.2-0.5-3.1-2-2.7-4.2c0.3-2,0.6-4.1,0.9-6.1c0.4-2.4,0.7-4.9,1.1-7.3c0.2-1.3,0-1.9-0.9-2.7
					c-2.6-2-5.1-4.2-7.5-6.2c-0.9-0.8-1.9-1.6-2.8-2.4c-2.3-2-2.4-2.8-0.8-5.4l1.7-2.7c1.9-3,3.8-6.1,5.8-9.1c0.4-0.6,0.4-1,0.1-1.7
					c-1-2-2-4.1-3-6.1c-1.1-2.2-2.1-4.5-3.3-6.7c-1-2-0.6-3.6,1.3-4.8c2-1.3,4-2.6,6-4c2-1.3,3.9-2.6,5.9-3.9
					c0.7-0.4,0.8-0.7,0.8-1.5c-0.1-2.4-0.2-4.9-0.2-7.3c-0.1-2.3-0.1-4.7-0.2-7c-0.1-2.3,0.9-3.5,3.1-3.9c2.3-0.3,4.6-0.8,6.8-1.1
					c2.4-0.4,4.8-0.9,7.3-1.2c0.8-0.1,1-0.3,1.4-1.2c1.2-3.2,2.6-6.4,3.8-9.4l1.3-3.3c1.1-2.8,2.1-3.2,4.9-2.5
					c1.1,0.3,2.2,0.6,3.3,0.8c3.2,0.8,6.6,1.7,9.8,2.6c1,0.3,1.6,0.1,2.4-0.7c2.4-2.4,4.9-4.8,7.4-7.1l2.4-2.3c2.1-2,3.1-2,5.3-0.2
					L79,3.1c2.8,2.2,5.8,4.5,8.6,6.9c0.6,0.5,1,0.6,1.8,0.3c2-0.8,4.1-1.5,6.1-2.2c2.3-0.8,4.8-1.7,7.1-2.6c2.2-0.8,3.7-0.2,4.8,1.9
					c2.3,4.6,4.5,8.7,6.6,12.6c0.2,0.4,0.9,0.8,1.3,0.8c4.9,0.5,9.7,0.8,14.2,1.1c2.3,0.1,3.5,1.3,3.6,3.6c0.1,2.2,0.2,4.3,0.4,6.5
					c0.1,2.4,0.3,4.8,0.4,7.2c0,1.1,0.3,1.5,1.2,2c2.3,1.1,4.5,2.4,6.7,3.5c1.9,1,3.7,2,5.6,3c2.1,1.1,2.7,2.6,1.8,4.8
					c-0.9,2.2-1.7,4.5-2.5,6.7c-0.8,2.2-1.6,4.3-2.4,6.5c-0.3,0.8-0.3,1.2,0.2,1.8c2.1,2.6,4.2,5.3,6.2,7.9c0.8,1,1.5,2,2.3,2.9
					c2,2.5,1.9,3.4-0.4,5.8c-0.9,0.9-1.8,1.9-2.7,2.8c-2.2,2.2-4.4,4.5-6.7,6.8c-0.7,0.7-0.9,1.2-0.6,2.1c0.8,3,1.5,6,2.2,8.9
					c0.3,1.4,0.6,2.7,1,4.1c0.8,3.3,0.4,4.1-2.7,5.3l-10.8,4.3l12,15.4c0.9,1.2,1.9,2.4,2.8,3.5c2.5,3.2,5.2,6.6,7.7,9.9
					c0.7,0.9,1.2,2.6,0.8,3.7c-0.5,1.2-2.6,1.5-3.5,1.5c-5.6-0.3-11.3-0.7-16.9-1l-5.3-0.3c-0.4,0-0.7,0-1.1-0.1l-0.4,2.4
					c-0.5,2.7-1,5.4-1.5,8.1c-0.2,1.2-0.4,2.5-0.7,3.7c-0.5,2.9-1.1,6-1.7,9c-0.2,1-1.1,2.6-2.3,2.9
					C122.2,177.1,122.1,177.1,122,177.1z M98.7,146.4l1.5,1.8c0.3,0.4,0.5,0.6,0.7,0.9l4.2,5.3c5.1,6.5,10.3,13.2,15.5,19.7
					c0.4,0.5,1.1,0.9,1.3,0.9c0,0,0,0,0,0c0.2-0.1,0.7-0.8,0.8-1.3c0.6-2.9,1.2-6,1.7-8.9c0.2-1.2,0.4-2.5,0.7-3.7
					c0.5-2.7,1-5.4,1.5-8.1l0.8-4.1l1.6,0.1c0.5,0,0.9,0,1.3,0.1l5.3,0.3c5.5,0.4,11.2,0.7,16.8,1c0.5,0,1.3-0.2,1.5-0.3
					c0.1-0.4-0.2-1.2-0.5-1.7c-2.5-3.3-5.1-6.7-7.7-9.9c-0.9-1.2-1.9-2.4-2.8-3.5l-13.7-17.5l13.3-5.3c2-0.8,2-0.8,1.4-2.9
					c-0.3-1.4-0.7-2.7-1-4.1c-0.7-2.9-1.4-5.9-2.2-8.9c-0.4-1.6-0.1-2.8,1.1-4c2.2-2.2,4.5-4.5,6.6-6.7c0.9-0.9,1.8-1.9,2.7-2.8
					c1.5-1.5,1.5-1.5,0.2-3.1c-0.8-1-1.5-2-2.3-2.9c-2-2.6-4.1-5.3-6.2-7.9c-1-1.2-1.1-2.3-0.5-3.8c0.8-2.1,1.6-4.3,2.4-6.4
					c0.8-2.2,1.7-4.5,2.5-6.8c0.5-1.2,0.3-1.7-0.9-2.3c-1.9-1-3.8-2-5.7-3c-2.2-1.2-4.4-2.4-6.6-3.5c-1.5-0.8-2.2-1.9-2.3-3.7
					c-0.1-2.4-0.3-4.8-0.4-7.2c-0.1-2.2-0.3-4.4-0.4-6.5c-0.1-1.3-0.4-1.7-1.8-1.7c-4.6-0.2-9.4-0.6-14.3-1.1
					c-1.1-0.1-2.3-0.9-2.8-1.9c-2.2-3.9-4.3-8.1-6.7-12.7c-0.6-1.2-1.1-1.4-2.3-0.9c-2.4,0.9-4.8,1.8-7.2,2.6
					c-2,0.7-4.1,1.4-6.1,2.2c-1.5,0.6-2.6,0.4-3.8-0.6c-2.8-2.3-5.8-4.6-8.6-6.8l-2.3-1.8C74,1.7,74,1.7,72.8,3l-2.4,2.3
					c-2.4,2.3-4.9,4.7-7.3,7.1c-1.3,1.3-2.6,1.7-4.3,1.2c-3.2-0.9-6.6-1.8-9.8-2.6c-1.1-0.3-2.2-0.6-3.3-0.8
					c-1.8-0.5-1.8-0.5-2.6,1.3l-1.3,3.3c-1.3,3.1-2.6,6.3-3.8,9.4c-0.4,1.1-1.1,2.2-2.9,2.4c-2.4,0.4-4.9,0.8-7.2,1.2
					c-2.2,0.4-4.6,0.8-6.9,1.2c-1.2,0.2-1.5,0.5-1.4,1.8c0.1,2.3,0.2,4.7,0.2,7c0.1,2.4,0.1,4.8,0.2,7.3c0.1,1.5-0.4,2.4-1.7,3.2
					c-2,1.3-3.9,2.6-5.9,3.9c-2,1.3-4,2.7-6.1,4c-1.1,0.7-1.2,1.1-0.6,2.2c1.1,2.2,2.2,4.5,3.3,6.7c1,2,2,4.1,3,6.1
					c0.7,1.3,0.6,2.4-0.2,3.6c-2,3-3.9,6.1-5.8,9.1l-1.7,2.7c-1,1.6-1,1.6,0.4,2.8c0.9,0.8,1.9,1.6,2.8,2.4c2.4,2.1,4.9,4.2,7.4,6.2
					c1.9,1.5,1.9,3.1,1.7,4.6c-0.4,2.4-0.8,4.9-1.1,7.3c-0.3,2-0.6,4.1-0.9,6.1c-0.2,1.2,0.1,1.7,1.2,2c1.7,0.4,3.3,0.9,5,1.4
					c0.7,0.2,1.5,0.4,2.2,0.7l1.4,0.4l-1.2,1.7c-0.3,0.4-0.5,0.7-0.8,1.1l-4.6,5.9c-4.9,6.3-10.1,12.8-15,19.3
					c-0.4,0.5-0.6,1.3-0.5,1.7c0.3,0.2,1,0.4,1.5,0.3c3.9-0.2,7.9-0.4,11.8-0.7c1.7-0.1,3.4-0.2,5-0.3c1.6-0.1,3.3-0.2,4.9-0.3
					l3.1-0.2l0.2,0.7c0,0.1,0.1,0.3,0.1,0.4c0.1,0.3,0.2,0.5,0.2,0.8l1.1,6.1c1,5.5,2,11.1,3.1,16.6c0.1,0.7,0.6,1.4,0.9,1.6
					c0.2,0,1-0.5,1.4-1c4.5-5.6,9-11.4,13.4-17l10.5-13.4l0.8,1c0.5,0.6,1,1.1,1.4,1.7c1.1,1.3,2.1,2.4,3,3.7c0.7,0.9,1.2,1,2.3,0.3
					c1.9-1.2,3.9-2.5,5.9-3.7c2.1-1.3,4.2-2.6,6.2-3.9c1.2-0.8,2.3-0.8,3.6-0.2c2.1,1.1,4.3,2.2,6.5,3.2c2,1,4.1,2,6.1,3.1
					c1.4,0.7,1.9,0.4,2.4-0.4L98.7,146.4z M153.9,150.1L153.9,150.1L153.9,150.1z M34.6,172.4l-1.5-8.3c-0.9-5.1-1.8-10-2.7-14.9
					c-0.4-2.1-0.4-2.1-2.4-2c-4.3,0.2-8.5,0.5-12.8,0.8c-2.2,0.1-4.5,0.3-6.8,0.4c-0.3,0-0.6,0-1.1,0l-2.7,0l2.2-2.9
					c0.6-0.8,1.2-1.6,1.8-2.4l2.7-3.5c4.3-5.5,8.7-11.1,13.1-16.7c0.6-0.8,2-1.8,3.1-1.5c0.2,0.1,0.5,0.1,0.8,0.2
					c1.2,0.2,3,0.5,3.6,2.9c0.8,3.4,1.8,6.8,2.7,10c0.3,1.2,0.7,2.3,1,3.5c0.5,1.7,0.5,1.7,2.3,1.4c5-0.7,9.6-1.4,14.2-1.9
					c1-0.1,2.1,0.4,2.7,1c0.7,0.7,1.3,1.4,1.9,2.2c0.2,0.3,0.5,0.6,0.8,1l0.5,0.6L34.6,172.4z M28.7,145.2c2.6,0,3.1,0.9,3.6,3.7
					c0.9,4.9,1.8,9.8,2.7,14.9l0.7,3.9l19.8-25.3c-0.1-0.1-0.2-0.2-0.3-0.4c-0.6-0.7-1.1-1.4-1.7-2c-0.3-0.3-0.8-0.5-1-0.4
					c-4.6,0.6-9.1,1.2-14.1,1.9c-2.9,0.4-3.8-0.1-4.5-2.9c-0.3-1.2-0.7-2.3-1-3.5c-1-3.3-1.9-6.7-2.8-10.1c-0.3-1.1-0.8-1.2-2-1.4
					c-0.3-0.1-0.7-0.1-1-0.2c-0.1,0-0.7,0.4-1.1,0.8c-4.4,5.5-8.8,11.2-13.1,16.7l-2.7,3.5c-0.5,0.6-1,1.3-1.5,2
					c2.1-0.1,4.2-0.3,6.3-0.4c4.3-0.3,8.5-0.5,12.8-0.8C28.2,145.2,28.5,145.2,28.7,145.2z M121.3,172.4l-21.4-27.4l0.4-0.6
					c0.5-0.7,1-1.4,1.5-2.2c1.4-2,2.8-4.1,4.2-6.1c0.6-0.8,1.9-1.2,2.8-1.2c3.2,0.1,6.4,0.2,9.5,0.4c1.4,0.1,2.8,0.1,4.3,0.2
					c2.1,0.1,2.1,0.1,2.5-2.1c0.5-2.9,1-5.8,1.6-8.8l1.1-6.3l23.7,30.3l-5.7-0.3c-3.1-0.2-6.1-0.4-9.1-0.6c-1.1-0.1-2.2-0.1-3.4-0.2
					c-1.9-0.1-3.7-0.3-5.6-0.3c-1.9-0.1-1.9-0.1-2.2,1.8c-0.9,5-1.8,10.1-2.8,15.3L121.3,172.4z M102.3,145l17.8,22.7l0.7-3.7
					c1-5.2,1.9-10.2,2.8-15.3c0.5-2.9,1.3-3.6,4.3-3.4c1.9,0.1,3.8,0.2,5.6,0.4c1.1,0.1,2.2,0.2,3.3,0.2c3,0.2,5.9,0.4,9.1,0.6
					l1.3,0.1l-18.3-23.3l-0.3,1.9c-0.6,3-1.1,5.9-1.6,8.8c-0.6,3.3-1.4,3.9-4.6,3.8c-1.4-0.1-2.8-0.1-4.3-0.2
					c-3.1-0.1-6.3-0.3-9.5-0.4c-0.5,0-1,0.2-1.2,0.4c-1.4,1.9-2.8,3.9-4.2,6C103,143.9,102.7,144.5,102.3,145z M65.7,149l-0.6-0.7
					c-0.9-1.1-1.8-2.1-2.7-3.2c-2.3-2.7-4.6-5.5-6.8-8.3c-0.7-0.9-1.3-1.2-2.4-1c-3.2,0.5-6.4,0.9-9.5,1.3l-3.1,0.4
					c-0.5,0.1-1.1,0.1-1.6,0.2l-1.7,0.2l-0.2-0.8c-0.4-1.3-0.8-2.7-1.1-4c-1-3.3-1.9-6.4-2.7-9.7c-0.4-1.7-1.1-2.4-2.6-2.8
					c-3.2-0.8-6.4-1.8-9.7-2.8c-1.3-0.4-2.7-0.8-4.1-1.2l-0.8-0.2l1.5-10.6c0.1-0.4,0.1-0.9,0.2-1.3c0.1-1.1,0.2-2.1,0.5-3.2
					c0.4-1.5,0.1-2.4-1.5-3.6c-2.6-2.1-5.2-4.3-7.7-6.5c-1-0.9-2.1-1.8-3.1-2.7L5.4,88l0.5-0.7c0.8-1.2,1.5-2.4,2.3-3.6
					c2-3.1,3.8-6.1,5.8-9.1c0.6-1,0.7-1.6,0.1-2.7c-1.4-2.8-2.8-5.8-4.2-8.6c-0.5-1-1-2.1-1.5-3.1C8.2,59.8,8,59.4,7.8,59l-0.6-1.4
					l0.7-0.5c1.2-0.8,2.3-1.5,3.5-2.3c2.9-1.9,5.9-3.9,8.8-5.8c1.1-0.7,1.4-1.3,1.4-2.5c-0.2-3.2-0.2-6.5-0.3-9.6
					c0-1.1-0.1-2.3-0.1-3.4c0-0.4,0-0.8,0-1.3l0-1.5l0.8-0.1c1.4-0.2,2.8-0.5,4.2-0.7c3.7-0.6,7.2-1.3,10.8-1.8
					c1-0.2,1.5-0.5,1.8-1.5c0.7-1.9,1.5-3.7,2.3-5.6c0.9-2.3,1.9-4.5,2.7-6.8c0.7-1.7,1.7-2.3,3.5-1.8c2.5,0.7,5.1,1.4,7.6,2
					c1.8,0.4,3.5,0.9,5.3,1.4c1.1,0.3,1.7,0.1,2.5-0.7c2.5-2.5,5.1-4.9,7.7-7.5c1-1,2.1-2,3.1-3L74.1,4l0.7,0.5
					c1.1,0.9,2.2,1.7,3.2,2.5c2.7,2.1,5.5,4.3,8.1,6.5c1.2,1,2.1,1.1,3.5,0.6c3.2-1.2,6.3-2.3,9.6-3.5c1.3-0.5,2.7-0.9,4-1.4
					l0.8-0.3l1.1,2.1c0.5,0.9,1,1.9,1.5,2.8c0.4,0.8,0.9,1.6,1.3,2.4c1.1,2.1,2.3,4.2,3.3,6.4c0.6,1.3,1.3,1.7,2.8,1.8
					c3,0.2,6.1,0.4,9.1,0.6l3,0.2c0.5,0,1,0.1,1.6,0.2l1.7,0.2l0.1,0.8c0.1,1.2,0.2,2.3,0.2,3.4c0.2,2.5,0.4,5.1,0.5,7.7l0,0.1
					c0.3,5.1,0.3,5.1,4.9,7.6c3.2,1.7,6.3,3.4,9.5,5.1c0.2,0.1,0.4,0.3,0.5,0.4c0,0.1,0.1,0.1,0.2,0.2l0.4,0.4l-0.2,0.6
					c-0.4,1.1-0.8,2.1-1.1,3.2c-0.9,2.5-1.7,5.2-3,7.6c-1.6,3.2-1.2,5.5,1.3,8.3c1.8,2,3.4,4.1,5.1,6.4c0.8,1.1,1.6,2.2,2.5,3.3
					l0.6,0.7l-0.7,0.6c-1,1-2,1.9-3,2.9c-2.5,2.4-5.1,4.8-7.7,7.2c-0.9,0.8-1.1,1.6-0.8,2.9c0.8,3.1,1.6,6.3,2.3,9.3
					c0.3,1.1,0.5,2.1,0.8,3.2c0.1,0.4,0.2,0.8,0.3,1.3l0.3,1.5l-0.8,0.3c-1.3,0.5-2.6,1-3.9,1.5c-3.1,1.2-6.3,2.5-9.5,3.7
					c-1.5,0.5-2.1,1.3-2.3,2.9c-0.5,3.3-1.1,6.6-1.7,9.8c-0.2,1.1-0.4,2.1-0.6,3.2c-0.1,0.3-0.2,0.6-0.3,0.9c0,0.1-0.1,0.2-0.1,0.4
					l-0.2,0.7l-0.7,0c-1.3-0.1-2.6-0.1-3.9-0.1c-3.1-0.1-6.2-0.2-9.3-0.5c-2.4-0.2-3.7,0.4-4.9,2.4c-1.6,2.7-3.3,5.2-5.2,7.8
					c-0.8,1.1-1.5,2.2-2.3,3.3l-0.5,0.7l-8.3-4.1c-0.6-0.3-1.1-0.6-1.7-0.8c-1.4-0.7-2.8-1.4-4.2-2.2c-1-0.5-1.6-0.5-2.7,0.2
					c-3,1.9-6.1,3.8-9.1,5.7c-1.2,0.7-2.4,1.5-3.6,2.2L65.7,149z M53.8,133.8c1.4,0,2.4,0.6,3.4,1.8c2.2,2.8,4.6,5.6,6.8,8.3
					c0.7,0.8,1.4,1.7,2.1,2.5c1-0.6,1.9-1.2,2.8-1.8c3-1.8,6.1-3.7,9.1-5.7c1.7-1.1,3.1-1.1,4.7-0.2c1.3,0.8,2.8,1.4,4.1,2.1
					c0.6,0.3,1.1,0.6,1.7,0.8l6.7,3.3c0.6-0.9,1.2-1.8,1.8-2.6c1.8-2.6,3.6-5.1,5.1-7.7c1.6-2.7,3.6-3.7,6.8-3.4
					c3,0.3,6.2,0.4,9.2,0.5c1.1,0,2.1,0.1,3.2,0.1c0-0.1,0.1-0.2,0.1-0.3c0.2-1.1,0.4-2.2,0.6-3.2c0.6-3.2,1.2-6.5,1.7-9.7
					c0.3-2.3,1.5-3.7,3.6-4.5c3.2-1.1,6.4-2.4,9.5-3.7c1-0.4,2.1-0.8,3.1-1.2c-0.1-0.4-0.1-0.7-0.2-1c-0.3-1.1-0.5-2.1-0.8-3.2
					c-0.7-3-1.5-6.2-2.3-9.3c-0.6-2-0.1-3.6,1.4-4.9c2.6-2.3,5.2-4.8,7.7-7.1c0.8-0.7,1.6-1.5,2.4-2.2c-0.7-0.9-1.3-1.8-2-2.6
					c-1.7-2.2-3.2-4.4-5-6.2c-3.2-3.4-3.7-6.6-1.7-10.6c1.2-2.3,2-4.9,2.9-7.4c0.3-0.9,0.6-1.8,0.9-2.7c-3.1-1.7-6.1-3.3-9.2-5
					c-5.4-2.9-5.6-3.2-5.9-9.3l0-0.1c-0.1-2.5-0.3-5.1-0.5-7.7c-0.1-0.9-0.1-1.7-0.2-2.6l0,0c-0.5-0.1-1-0.1-1.5-0.2l-3-0.2
					c-3-0.2-6-0.4-9.1-0.6c-2.2-0.1-3.6-1-4.6-3c-1-2.1-2.1-4.2-3.2-6.3c-0.4-0.8-0.9-1.6-1.3-2.4c-0.5-0.9-1-1.9-1.5-2.8l-0.3-0.6
					c-1.1,0.4-2.2,0.8-3.2,1.1c-3.3,1.2-6.4,2.2-9.5,3.5c-2.1,0.8-3.7,0.6-5.5-0.9c-2.6-2.2-5.4-4.4-8.1-6.4c-0.9-0.7-1.7-1.3-2.6-2
					c-0.8,0.8-1.7,1.6-2.5,2.4c-2.7,2.5-5.2,4.9-7.7,7.4c-1.3,1.3-2.7,1.6-4.4,1.2c-1.8-0.5-3.5-0.9-5.3-1.4c-2.5-0.6-5.1-1.3-7.7-2
					c-0.8-0.2-0.8-0.2-1.1,0.6c-0.9,2.3-1.8,4.6-2.8,6.8c-0.8,1.9-1.5,3.7-2.3,5.6c-0.7,1.7-1.7,2.5-3.4,2.8
					c-3.6,0.6-7.1,1.2-10.7,1.8c-1.1,0.2-2.2,0.4-3.3,0.6c0,0.3,0,0.7,0,1c0,1.1,0.1,2.3,0.1,3.4c0.1,3.1,0.2,6.4,0.3,9.6
					c0.1,1.9-0.6,3.2-2.3,4.3c-3,1.9-5.8,3.8-8.8,5.8c-0.9,0.6-1.8,1.2-2.8,1.8c0.1,0.3,0.3,0.6,0.4,1c0.5,1,1,2.1,1.5,3.1
					c1.3,2.8,2.7,5.7,4.2,8.6c0.9,1.7,0.8,3.2-0.2,4.7c-2,3-3.8,5.9-5.8,9c-0.6,0.9-1.2,1.9-1.8,2.9c0.8,0.7,1.7,1.4,2.5,2.1
					c2.5,2.1,5.1,4.4,7.7,6.4c1.5,1.2,3,2.9,2.1,5.7c-0.3,0.9-0.4,1.8-0.5,2.8c0,0.5-0.1,0.9-0.2,1.4l-1.3,8.9
					c1.1,0.3,2.2,0.7,3.3,1c3.3,1,6.4,1.9,9.6,2.8c2.3,0.6,3.5,1.8,4.1,4.2c0.8,3.2,1.7,6.3,2.6,9.6c0.3,1.1,0.6,2.1,0.9,3.2l0,0
					c0.6-0.1,1.1-0.1,1.6-0.2l3.1-0.4c3.1-0.4,6.3-0.8,9.4-1.3C53.3,133.8,53.6,133.8,53.8,133.8z"/>
			</g>
			<g>
				<path class="st0" d="M130.1,76.5c-0.1,28.9-23.5,52.2-52.4,52.1c-28.5-0.1-51.9-23.6-51.8-52.1c0.1-29,23.4-52.2,52.6-52.1
					C106.8,24.5,130.1,48,130.1,76.5z M77.8,28.1c-26.7,0-48.4,21.8-48.3,48.5c0.1,26.7,21.9,48.4,48.5,48.4
					c26.7-0.1,48.4-21.9,48.3-48.5C126.3,49.7,104.6,28,77.8,28.1z"/>
				<path class="st1" d="M77.9,129.6c-0.1,0-0.1,0-0.2,0c-29.2-0.1-52.9-23.9-52.8-53.1c0-14.3,5.6-27.7,15.7-37.7
					c10-10,23.4-15.4,37.7-15.4c0.1,0,0.1,0,0.2,0c14,0,27.2,5.6,37.2,15.7c10,10.1,15.5,23.4,15.5,37.4c0,14.3-5.6,27.6-15.7,37.7
					C105.3,124.1,92,129.6,77.9,129.6z M78.2,25.4c-13.8,0-26.6,5.3-36.3,14.9c-9.7,9.6-15.1,22.5-15.1,36.2
					c-0.1,28.1,22.7,51,50.8,51.1c0.1,0,0.1,0,0.2,0c13.6,0,26.4-5.3,36-14.9c9.7-9.7,15.1-22.5,15.1-36.3l0,0
					c0-13.5-5.2-26.3-14.9-36c-9.6-9.7-22.3-15.1-35.8-15.1C78.3,25.4,78.3,25.4,78.2,25.4z M77.9,125.9
					c-27.2,0-49.4-22.1-49.4-49.4c0-13.2,5.1-25.6,14.4-35c9.3-9.4,21.7-14.5,34.9-14.6c0,0,0.1,0,0.1,0c27.2,0,49.4,22.1,49.5,49.3
					c0,13.2-5.1,25.6-14.4,35c-9.3,9.4-21.7,14.6-34.9,14.6C78,125.9,78,125.9,77.9,125.9z M77.8,28.1l0,1c-12.6,0-24.5,5-33.5,14
					c-9,9-13.9,20.9-13.8,33.5c0.1,26.1,21.3,47.4,47.4,47.4c0,0,0.1,0,0.1,0c12.6,0,24.5-5,33.5-14c9-9,13.9-20.9,13.9-33.5
					c-0.1-26.1-21.3-47.3-47.5-47.3c0,0,0,0-0.1,0L77.8,28.1z"/>
			</g>
		</g>
	</g>
	<g>
		<g>
			<path class="st0" d="M53.8,91.4h8.1V64.9c0-1,0.1-2,0.1-2h-0.1c0,0-0.4,0.8-1.8,2.2l-3.9,3.9L54,66.5l8.2-8.1h3.3v32.9h8v3.2
				H53.8V91.4z"/>
			<path class="st1" d="M73.6,94.8H53.6v-3.7h8.1V64.9c0-0.5,0-0.9,0-1.3c-0.3,0.4-0.7,0.9-1.4,1.6l-4,4l-2.6-2.7l8.4-8.4h3.6v32.9
				h8V94.8z M54.1,94.3h19.1v-2.7h-8V58.7h-2.9l-7.9,7.9l1.9,2l3.7-3.7c1.4-1.3,1.7-2.1,1.7-2.1l0.1-0.1l0.5,0l0,0.3
				c0,0-0.1,1-0.1,2v26.8h-8.1V94.3z"/>
		</g>
		<g>
			<path class="st0" d="M78.5,76.5c0-10.4,3.1-18.6,12.5-18.6c9.4,0,12.4,8.3,12.4,18.6c0,10.5-3,18.7-12.4,18.7
				C81.5,95.2,78.5,86.9,78.5,76.5z M99.7,76.5c0-8.6-1.9-15.3-8.7-15.3c-6.9,0-8.8,6.7-8.8,15.3c0,8.6,1.9,15.4,8.8,15.4
				C97.8,91.8,99.7,85.1,99.7,76.5z"/>
			<path class="st1" d="M90.9,95.4c-8.4,0-12.7-6.4-12.7-18.9c0-12.4,4.4-18.9,12.7-18.9c8.4,0,12.7,6.4,12.7,18.9
				C103.6,89,99.4,95.4,90.9,95.4z M90.9,58.1c-8.1,0-12.2,6.2-12.2,18.4c0,12.2,4.1,18.4,12.2,18.4c8.1,0,12.2-6.2,12.2-18.4
				C103.1,64.3,99,58.1,90.9,58.1z M90.9,92.1c-6.1,0-9-5.1-9-15.6c0-10.5,3-15.6,9-15.6c6,0,9,5.1,9,15.6
				C99.9,87,97,92.1,90.9,92.1z M90.9,61.4c-5.8,0-8.5,4.8-8.5,15.1c0,10.3,2.7,15.1,8.5,15.1c5.8,0,8.5-4.8,8.5-15.1
				C99.4,66.3,96.6,61.4,90.9,61.4z"/>
		</g>
	</g>
</g>
</svg>
