<svg id="Layer_1" data-name="Layer 1" xmlns="http://www.w3.org/2000/svg" viewBox="0 0 155.87 177.09"><defs><style>.cls-1{fill:#fff;}.cls-2{fill:#001c2d;}</style></defs><title>Ribbon</title><g id="_4UedjX.tif" data-name="4UedjX.tif"><path class="cls-1" d="M130.83,118l12.84,16.42c3.5,4.48,7.05,8.92,10.48,13.46a3.39,3.39,0,0,1,.62,2.73c-.21.53-1.63.88-2.49.84-7.39-.39-14.77-.89-22.15-1.35-.6,0-1.21-.06-2-.09-.71,3.83-1.41,7.6-2.1,11.37-.77,4.21-1.47,8.43-2.34,12.61-.17.82-.9,2-1.56,2.12a3.09,3.09,0,0,1-2.32-1.24c-6.61-8.33-13.15-16.72-19.71-25.1-.34-.43-.69-.85-1.26-1.56l-.5.89c-.92,1.65-2.14,1.65-3.7.85-4.18-2.15-8.43-4.16-12.61-6.32a2.3,2.3,0,0,0-2.65.11c-4,2.56-8.11,5-12.13,7.57-1.45.92-2.55.83-3.62-.56-1.37-1.78-2.85-3.47-4.41-5.36l-5.86,7.47c-5.73,7.31-11.44,14.65-17.23,21.92-.56.7-1.78,1.49-2.44,1.31s-1.38-1.44-1.55-2.33c-1.46-7.56-2.79-15.13-4.17-22.7a9.48,9.48,0,0,0-.32-1c-2.42.13-4.84.25-7.26.4-5.61.35-11.22.76-16.84,1-.85,0-2.27-.36-2.45-.89a3.45,3.45,0,0,1,.68-2.73c6.5-8.42,13.08-16.78,19.63-25.16.37-.47.71-1,1.15-1.58-2.5-.73-4.81-1.47-7.17-2.07-1.73-.44-2.22-1.44-2-3.11.71-4.46,1.32-8.94,2.06-13.4a3.31,3.31,0,0,0-1.29-3.62c-3.5-2.76-6.85-5.72-10.26-8.6C2,88.65,2,88.32,3.36,86.13c2.48-3.92,4.94-7.87,7.49-11.75A2.32,2.32,0,0,0,11,71.72c-2.12-4.26-4.11-8.59-6.25-12.85-.79-1.58-.49-2.58,1-3.52,4-2.59,7.94-5.28,11.94-7.87a2.35,2.35,0,0,0,1.25-2.36c-.2-4.76-.27-9.54-.47-14.3-.07-1.71.49-2.56,2.27-2.84,4.71-.72,9.38-1.65,14.1-2.36a2.43,2.43,0,0,0,2.15-1.81c1.68-4.26,3.44-8.49,5.17-12.72.94-2.31,1.37-2.53,3.73-1.93,4.38,1.12,8.77,2.2,13.11,3.42a3,3,0,0,0,3.35-.93c3.2-3.2,6.51-6.29,9.78-9.42,1.7-1.63,2.13-1.65,4-.14C79.75,5,83.42,7.83,87,10.78a2.49,2.49,0,0,0,2.81.44c4.4-1.64,8.86-3.15,13.25-4.82,1.73-.66,2.72-.23,3.53,1.39q3.21,6.38,6.65,12.65a3,3,0,0,0,2,1.35q7.12.69,14.26,1.09c1.85.1,2.61.87,2.7,2.68.22,4.58.57,9.15.77,13.73a2.88,2.88,0,0,0,1.75,2.84c4.14,2.1,8.17,4.4,12.3,6.54,1.62.84,2,1.85,1.34,3.56-1.71,4.38-3.26,8.82-5,13.2a2.43,2.43,0,0,0,.39,2.79c2.87,3.57,5.64,7.23,8.44,10.86,1.67,2.16,1.65,2.43-.31,4.44-3.12,3.19-6.21,6.42-9.38,9.56a2.72,2.72,0,0,0-.89,3c1.17,4.3,2.14,8.65,3.21,13,.69,2.81.56,3.09-2,4.12Zm-8.59,15a8.55,8.55,0,0,0,.39-1.14c.78-4.33,1.62-8.65,2.27-13a4.09,4.09,0,0,1,3-3.67c4.46-1.62,8.85-3.45,13.35-5.23-.14-.72-.23-1.31-.37-1.89-1-4.15-2-8.32-3.08-12.44a3.42,3.42,0,0,1,1.06-3.9c3.63-3.28,7.18-6.65,10.78-10-2.81-3.64-5-6.87-7.57-9.66-2.75-2.95-3.41-5.69-1.51-9.43,1.75-3.44,2.77-7.24,4.07-10.77-.23-.26-.3-.37-.4-.43l-9.52-5.13c-5.14-2.76-5.11-2.76-5.39-8.55-.18-3.7-.49-7.39-.75-11.13-.93-.1-1.66-.2-2.38-.25-4-.29-8-.62-12.08-.82a3.81,3.81,0,0,1-3.7-2.39c-1.4-3-3-5.86-4.55-8.78-.73-1.39-1.47-2.77-2.22-4.17C99,11.8,94.44,13.31,90,15a3.91,3.91,0,0,1-4.47-.74c-3.7-3.08-7.53-6-11.34-9-3.69,3.53-7.31,6.92-10.83,10.4a3.23,3.23,0,0,1-3.46.91c-4.31-1.15-8.64-2.17-12.94-3.38-1.31-.37-1.82,0-2.29,1.18-1.62,4.15-3.36,8.25-5,12.4A3,3,0,0,1,37.06,29c-4.94.76-9.86,1.66-14.91,2.53,0,.68,0,1.28,0,1.88.12,4.34.19,8.68.41,13a3.43,3.43,0,0,1-1.84,3.43C16.62,52.45,12.59,55.2,8.44,58c.3.66.53,1.21.79,1.75,1.88,3.91,3.71,7.84,5.67,11.7a3.27,3.27,0,0,1-.18,3.71c-2.72,4.13-5.33,8.34-8,12.63,3.63,3.08,7.15,6.19,10.82,9.13,1.61,1.29,2.44,2.55,1.81,4.67a30.55,30.55,0,0,0-.67,4.34c-.46,3.24-.92,6.49-1.39,9.78,4.74,1.39,9.22,2.82,13.77,4a4.13,4.13,0,0,1,3.37,3.5c1.13,4.55,2.49,9,3.8,13.67.9-.1,1.68-.17,2.46-.27,4.18-.56,8.36-1.09,12.53-1.71a3.19,3.19,0,0,1,3.3,1.36c3.09,3.86,6.29,7.63,9.51,11.51,4.29-2.65,8.52-5.21,12.68-7.87a3.21,3.21,0,0,1,3.71-.2c1.91,1.07,3.92,2,5.89,3l7.52,3.71c2.59-3.8,5.22-7.34,7.48-11.1a5.4,5.4,0,0,1,5.82-2.91C113.44,132.69,117.84,132.73,122.24,132.92ZM35.18,170.07,56.8,142.44a34.74,34.74,0,0,0-2.56-3.07,2.6,2.6,0,0,0-1.85-.7c-4.73.58-9.44,1.25-14.15,1.92-2.35.34-2.8.1-3.44-2.14-1.28-4.52-2.66-9-3.75-13.58-.52-2.19-2.29-2-3.67-2.33-.57-.15-1.62.54-2.1,1.14C20,130.38,14.71,137.12,9.44,143.86c-.89,1.13-1.75,2.28-2.78,3.62.76,0,1.22,0,1.68,0,6.52-.4,13-.83,19.57-1.21,2.69-.16,2.93.12,3.42,2.84C32.57,155.93,33.84,162.75,35.18,170.07Zm93.17-49.31c-.84,4.63-1.6,8.77-2.33,12.92-.49,2.77-.81,3.07-3.55,3-4.58-.2-9.15-.45-13.73-.59a2.69,2.69,0,0,0-2,.78c-1.95,2.65-3.75,5.41-5.64,8.2l19.62,25c1.35-7.4,2.62-14.3,3.86-21.2.44-2.42.77-2.74,3.25-2.61,3,.16,6,.38,9,.57l12.56.77Z"/><path class="cls-2" d="M122,177.09a4.39,4.39,0,0,1-2.93-1.63c-5.21-6.56-10.46-13.27-15.53-19.76l-4.18-5.35-.33-.41c-1.1,1.64-2.72,1.93-4.8.86s-4.06-2-6.11-3.06-4.35-2.15-6.51-3.26a1.34,1.34,0,0,0-1.65.06c-2.08,1.33-4.18,2.62-6.27,3.92s-3.92,2.42-5.86,3.65-3.6,1-5-.8c-.93-1.21-1.92-2.38-3-3.63l-.63-.75-9,11.43c-4.37,5.58-8.88,11.35-13.37,17-.69.86-2.26,2-3.48,1.65s-2.06-2-2.27-3.1c-1.07-5.54-2.09-11.18-3.07-16.64L27,151.19a1.39,1.39,0,0,0,0-.16l-1.58.09-4.92.28-5,.32c-3.88.25-7.89.52-11.84.71-.77,0-3-.27-3.45-1.57A4.38,4.38,0,0,1,1,147.18c5-6.46,10.11-13,15.06-19.31L20.61,122l.3-.4-.9-.27c-1.68-.5-3.26-1-4.88-1.39-2.15-.54-3.06-2-2.7-4.24.32-2,.63-4.07.93-6.1.36-2.44.73-4.88,1.13-7.31a2.33,2.33,0,0,0-.92-2.67c-2.56-2-5.07-4.17-7.49-6.25L3.28,91c-2.3-2-2.43-2.81-.77-5.43L4.2,82.92c1.88-3,3.83-6.08,5.81-9.09a1.36,1.36,0,0,0,.06-1.66c-1-2-2-4.09-3-6.15-1.06-2.2-2.15-4.48-3.26-6.7a3.31,3.31,0,0,1,1.32-4.81c2-1.31,4-2.64,6-4s3.92-2.61,5.9-3.89a1.38,1.38,0,0,0,.79-1.48c-.1-2.43-.17-4.86-.24-7.29s-.13-4.67-.23-7,.9-3.53,3.12-3.87,4.58-.75,6.81-1.14c2.38-.42,4.85-.85,7.29-1.21.78-.12,1-.34,1.37-1.19,1.25-3.16,2.56-6.36,3.83-9.45l1.35-3.29c1.14-2.78,2.05-3.25,4.9-2.52l3.3.84c3.23.82,6.57,1.67,9.84,2.59A2,2,0,0,0,61.58,11c2.41-2.41,4.92-4.8,7.35-7.11l2.44-2.32c2.06-2,3.06-2,5.34-.21L79,3.13C81.86,5.36,84.8,7.67,87.64,10a1.52,1.52,0,0,0,1.83.27c2-.76,4.07-1.49,6.11-2.21,2.35-.84,4.77-1.7,7.14-2.6,2.2-.84,3.72-.24,4.78,1.88C109.8,11.92,112,16,114.13,20a2.07,2.07,0,0,0,1.25.84c4.87.47,9.65.84,14.22,1.09,2.34.13,3.53,1.31,3.64,3.63s.23,4.34.37,6.51c.15,2.41.3,4.82.4,7.23a1.91,1.91,0,0,0,1.21,2c2.25,1.14,4.5,2.36,6.68,3.54,1.87,1,3.74,2,5.62,3a3.41,3.41,0,0,1,1.82,4.81c-.87,2.23-1.72,4.52-2.54,6.74s-1.59,4.32-2.43,6.46a1.46,1.46,0,0,0,.24,1.8c2.11,2.62,4.19,5.33,6.2,7.95l2.25,2.92c2,2.54,1.91,3.4-.39,5.75L149.94,87c-2.17,2.23-4.41,4.54-6.67,6.77a1.74,1.74,0,0,0-.62,2.06c.81,3,1.53,6,2.23,8.94q.49,2,1,4.07c.81,3.28.41,4.07-2.65,5.28l-10.77,4.27,12,15.37,2.78,3.54c2.55,3.24,5.18,6.58,7.71,9.93a4.32,4.32,0,0,1,.75,3.7c-.47,1.21-2.57,1.52-3.48,1.48-5.62-.3-11.33-.66-16.86-1l-5.3-.34L129,151l-.45,2.4c-.5,2.72-1,5.42-1.5,8.11q-.34,1.84-.66,3.68c-.52,2.94-1.06,6-1.68,9-.21,1-1.09,2.61-2.32,2.89A1.77,1.77,0,0,1,122,177.09ZM98.69,146.39l1.47,1.81.73.91,4.18,5.35c5.07,6.48,10.32,13.19,15.52,19.75a2.65,2.65,0,0,0,1.35.88h0a2.83,2.83,0,0,0,.77-1.34c.62-2.95,1.15-6,1.67-8.89q.33-1.85.66-3.69c.49-2.7,1-5.4,1.5-8.12l.76-4.11,1.61.07,1.27.06,5.31.34c5.52.35,11.22.72,16.83,1a3.54,3.54,0,0,0,1.53-.31,2.8,2.8,0,0,0-.51-1.66c-2.51-3.33-5.14-6.67-7.68-9.9L142.89,135l-13.67-17.47,13.26-5.26c2-.78,2-.78,1.45-2.95q-.5-2-1-4.08c-.7-2.92-1.42-5.94-2.22-8.88a3.68,3.68,0,0,1,1.15-4c2.24-2.22,4.47-4.52,6.64-6.75l2.73-2.8c1.48-1.52,1.48-1.52.24-3.13l-2.26-2.93c-2-2.61-4.08-5.31-6.18-7.91a3.43,3.43,0,0,1-.54-3.78c.83-2.13,1.62-4.28,2.42-6.43s1.67-4.52,2.55-6.77c.48-1.23.3-1.7-.87-2.31-1.9-1-3.78-2-5.66-3-2.17-1.17-4.41-2.39-6.63-3.52a3.87,3.87,0,0,1-2.3-3.69c-.1-2.4-.25-4.8-.4-7.2-.13-2.18-.27-4.36-.37-6.53-.06-1.3-.42-1.66-1.75-1.73-4.59-.25-9.4-.62-14.3-1.1a4,4,0,0,1-2.81-1.86C110.21,17,108,12.84,105.71,8.24c-.6-1.18-1.06-1.37-2.29-.91-2.38.91-4.82,1.77-7.18,2.62-2,.72-4.06,1.45-6.08,2.2a3.47,3.47,0,0,1-3.79-.6c-2.83-2.32-5.76-4.62-8.59-6.85L75.48,2.88C74,1.74,74,1.75,72.76,3L70.32,5.29C67.9,7.59,65.39,10,63,12.37a4,4,0,0,1-4.33,1.18c-3.24-.91-6.57-1.76-9.79-2.57l-3.31-.84c-1.81-.47-1.82-.47-2.55,1.34l-1.35,3.29c-1.27,3.08-2.58,6.27-3.82,9.42a3.42,3.42,0,0,1-2.94,2.44c-2.41.36-4.87.79-7.24,1.21s-4.56.8-6.86,1.15c-1.21.18-1.48.52-1.43,1.81.1,2.34.16,4.69.23,7s.14,4.84.24,7.26a3.32,3.32,0,0,1-1.7,3.24c-2,1.27-3.92,2.58-5.88,3.88s-4,2.68-6.06,4c-1.05.68-1.17,1.12-.61,2.23,1.12,2.23,2.22,4.52,3.28,6.73,1,2,2,4.09,3,6.12a3.31,3.31,0,0,1-.18,3.65c-2,3-3.91,6.08-5.79,9.06L4.2,86.66c-1,1.64-1,1.64.37,2.83l2.8,2.39c2.41,2.07,4.91,4.2,7.43,6.19a4.32,4.32,0,0,1,1.65,4.56c-.4,2.42-.76,4.85-1.12,7.28-.3,2-.61,4.08-.93,6.12-.2,1.25.07,1.69,1.22,2,1.65.42,3.26.9,5,1.41l2.24.67,1.36.4L23,122.2c-.27.38-.52.72-.78,1.05l-4.58,5.85c-4.95,6.31-10.06,12.84-15,19.3A2.82,2.82,0,0,0,2,150.08a3.42,3.42,0,0,0,1.49.34c3.93-.19,7.93-.45,11.8-.7l5-.32c1.65-.1,3.29-.19,4.94-.28l3.11-.17.24.73.13.38a5.09,5.09,0,0,1,.23.77l1.1,6.08c1,5.45,2,11.09,3.07,16.62a2.9,2.9,0,0,0,.86,1.56,3.45,3.45,0,0,0,1.37-1c4.49-5.63,9-11.39,13.36-17l10.5-13.38.79,1,1.42,1.69c1.06,1.26,2.06,2.45,3,3.69.73.94,1.22,1,2.3.33,1.95-1.24,3.92-2.45,5.88-3.67s4.18-2.58,6.25-3.9a3.29,3.29,0,0,1,3.64-.16c2.15,1.11,4.31,2.18,6.48,3.25s4.1,2,6.13,3.07c1.41.73,1.88.45,2.37-.45Zm55.24,3.66ZM34.6,172.44l-1.51-8.26c-.94-5.09-1.84-10-2.72-14.91-.39-2.13-.38-2.13-2.38-2q-6.41.37-12.81.79l-6.75.42c-.32,0-.65,0-1.06,0H4.64l2.21-2.88c.63-.83,1.22-1.59,1.81-2.35l2.73-3.49c4.28-5.48,8.71-11.15,13.12-16.68.61-.78,2-1.78,3.14-1.48.25.07.52.11.79.16,1.2.21,3,.52,3.59,2.9.8,3.37,1.79,6.76,2.73,10q.5,1.74,1,3.49c.48,1.69.47,1.7,2.33,1.42,5-.72,9.57-1.36,14.17-1.92a3.57,3.57,0,0,1,2.66,1,20.25,20.25,0,0,1,1.88,2.19l.76,1,.51.62Zm-5.86-27.21c2.56,0,3.08.88,3.59,3.68.89,4.91,1.79,9.81,2.72,14.9l.71,3.89,19.76-25.26-.29-.37a18.72,18.72,0,0,0-1.69-2,1.68,1.68,0,0,0-1-.43c-4.58.56-9.11,1.2-14.13,1.92-2.88.41-3.77-.15-4.54-2.86q-.49-1.74-1-3.48c-1-3.31-1.94-6.73-2.76-10.14-.25-1.05-.79-1.19-2-1.39-.33-.06-.66-.12-1-.2a3.26,3.26,0,0,0-1.05.8C21.67,129.84,17.24,135.5,13,141l-2.73,3.5c-.5.64-1,1.29-1.52,2l6.32-.4q6.41-.41,12.82-.79Zm92.56,27.2L99.85,145.07l.41-.6,1.46-2.16c1.35-2,2.75-4.09,4.21-6.07a3.75,3.75,0,0,1,2.83-1.19c3.17.09,6.38.25,9.49.39l4.26.2c2.13.09,2.13.09,2.52-2.13.51-2.89,1-5.77,1.59-8.82l1.14-6.29,23.74,30.33-5.72-.35-9.06-.55-3.35-.22c-1.87-.13-3.73-.25-5.6-.35s-1.88-.1-2.22,1.79c-.91,5-1.83,10.06-2.78,15.28Zm-19-27.45,17.8,22.72.68-3.73c1-5.22,1.87-10.25,2.78-15.28.53-2.95,1.33-3.59,4.29-3.43,1.88.1,3.75.23,5.63.35l3.34.22,9.06.55,1.29.08-18.26-23.33-.35,1.91c-.56,3-1.08,5.93-1.59,8.81-.58,3.29-1.35,3.92-4.58,3.78l-4.27-.2c-3.1-.15-6.3-.3-9.45-.39a1.78,1.78,0,0,0-1.16.37c-1.43,1.95-2.75,3.92-4.16,6Zm-36.58,4-.55-.67-2.67-3.21c-2.27-2.72-4.61-5.53-6.85-8.32a2.19,2.19,0,0,0-2.37-1c-3.15.47-6.36.9-9.47,1.31l-3.08.41c-.53.07-1.06.13-1.63.19l-1.69.18-.23-.82q-.57-2-1.15-4c-1-3.32-1.86-6.45-2.66-9.69a3.14,3.14,0,0,0-2.64-2.77c-3.24-.83-6.39-1.77-9.73-2.77L17,116.63l-.83-.24,1.51-10.64c.06-.43.11-.86.16-1.29a18.09,18.09,0,0,1,.55-3.2c.44-1.48.08-2.36-1.48-3.6-2.62-2.09-5.21-4.32-7.71-6.47L6,88.52,5.36,88l.47-.74L8.1,83.64c2-3.12,3.83-6.07,5.79-9.06A2.3,2.3,0,0,0,14,71.87c-1.45-2.85-2.84-5.77-4.19-8.6L8.33,60.15c-.17-.37-.34-.74-.52-1.14L7.18,57.6l.71-.47,3.46-2.31c2.89-1.94,5.88-3.94,8.85-5.84a2.45,2.45,0,0,0,1.38-2.54c-.16-3.21-.25-6.48-.32-9.63q0-1.7-.09-3.41c0-.42,0-.84,0-1.28V30.65l.83-.14,4.15-.72c3.7-.65,7.19-1.25,10.78-1.81a2.07,2.07,0,0,0,1.85-1.54c.74-1.87,1.5-3.73,2.26-5.59.93-2.26,1.85-4.52,2.74-6.8.68-1.74,1.72-2.27,3.49-1.78,2.53.71,5.12,1.37,7.63,2,1.77.45,3.54.9,5.3,1.37a2.25,2.25,0,0,0,2.5-.66c2.53-2.51,5.06-4.91,7.73-7.45l3.11-3,.63-.6.68.54,3.25,2.55c2.68,2.1,5.45,4.27,8.11,6.48a2.94,2.94,0,0,0,3.47.58c3.16-1.24,6.29-2.34,9.61-3.5l4-1.42.81-.29L105.22,11c.5.94,1,1.88,1.5,2.82s.86,1.62,1.29,2.43c1.11,2.07,2.26,4.22,3.28,6.39a2.81,2.81,0,0,0,2.84,1.82c3,.15,6.12.38,9.1.6l3,.22c.5,0,1,.09,1.57.16l1.68.18.06.84c.08,1.15.16,2.3.25,3.44.18,2.52.37,5.13.5,7.7v.12c.25,5.13.25,5.13,4.86,7.6l9.52,5.13a1.61,1.61,0,0,1,.49.43l.17.2.41.45-.21.57c-.39,1.06-.76,2.15-1.12,3.24a56.63,56.63,0,0,1-3,7.63c-1.62,3.19-1.24,5.52,1.35,8.29a72.52,72.52,0,0,1,5.13,6.42c.79,1.06,1.61,2.17,2.49,3.32l.56.72-.67.62-3,2.85c-2.53,2.37-5.14,4.81-7.75,7.17a2.44,2.44,0,0,0-.76,2.9c.83,3.09,1.59,6.25,2.33,9.31q.38,1.58.76,3.16c.1.4.17.81.26,1.26l.29,1.49-.77.31-3.86,1.54c-3.11,1.25-6.32,2.54-9.52,3.7a3.11,3.11,0,0,0-2.31,2.88c-.5,3.28-1.1,6.59-1.69,9.8q-.3,1.61-.59,3.22a4.75,4.75,0,0,1-.28.9c0,.12-.1.25-.15.39l-.24.7-.74,0-3.92-.14c-3.05-.1-6.21-.21-9.31-.48a4.43,4.43,0,0,0-4.87,2.43c-1.6,2.67-3.34,5.17-5.19,7.81-.77,1.1-1.54,2.21-2.32,3.34l-.49.72-8.3-4.09-1.7-.83c-1.4-.68-2.85-1.37-4.24-2.15a2.23,2.23,0,0,0-2.69.17c-3,1.93-6.11,3.83-9.11,5.67l-3.58,2.21ZM53.84,133.78a4.16,4.16,0,0,1,3.4,1.79c2.23,2.78,4.56,5.58,6.82,8.29l2.12,2.54L69,144.65c3-1.84,6.09-3.74,9.08-5.65a4.18,4.18,0,0,1,4.74-.23c1.34.75,2.76,1.43,4.13,2.1l1.72.84L95.44,145l1.84-2.65c1.83-2.61,3.55-5.08,5.12-7.69a6.36,6.36,0,0,1,6.77-3.39c3,.27,6.17.38,9.2.48l3.21.12a1.76,1.76,0,0,0,.08-.29q.29-1.62.59-3.23c.58-3.19,1.19-6.49,1.68-9.74a5.1,5.1,0,0,1,3.61-4.46c3.16-1.15,6.36-2.43,9.45-3.67l3.11-1.24c-.07-.36-.13-.7-.21-1l-.76-3.17c-.73-3-1.49-6.19-2.31-9.25a4.4,4.4,0,0,1,1.36-4.9c2.6-2.34,5.2-4.78,7.72-7.14l2.39-2.24c-.69-.9-1.33-1.78-2-2.62a71.24,71.24,0,0,0-5-6.24c-3.15-3.37-3.67-6.63-1.67-10.56a55.07,55.07,0,0,0,2.88-7.37c.3-.89.6-1.79.91-2.66l-9.22-5c-5.39-2.9-5.62-3.25-5.91-9.26v-.12c-.13-2.55-.32-5.14-.5-7.66q-.1-1.31-.19-2.62h0c-.54-.06-1-.12-1.48-.15l-3-.22c-3-.22-6-.45-9.05-.6a4.78,4.78,0,0,1-4.55-3c-1-2.13-2.13-4.25-3.23-6.3-.44-.81-.87-1.63-1.3-2.44s-1-1.87-1.49-2.81l-.32-.59L99.92,12.5c-3.3,1.16-6.42,2.25-9.54,3.48a4.89,4.89,0,0,1-5.48-.9c-2.64-2.19-5.39-4.35-8.06-6.44l-2.57-2L71.79,9c-2.67,2.54-5.18,4.93-7.7,7.42a4.24,4.24,0,0,1-4.43,1.17c-1.75-.47-3.51-.92-5.27-1.36-2.52-.64-5.12-1.3-7.67-2-.76-.21-.79-.2-1.09.58-.89,2.29-1.82,4.56-2.75,6.83-.76,1.85-1.52,3.71-2.25,5.57A4,4,0,0,1,37.22,30c-3.57.55-7.05,1.16-10.74,1.8l-3.33.58c0,.35,0,.68,0,1q0,1.71.09,3.41c.08,3.14.16,6.39.32,9.58a4.43,4.43,0,0,1-2.3,4.32c-3,1.89-5.8,3.8-8.81,5.82L9.7,58.33c.15.33.29.65.43,1l1.5,3.13C13,65.23,14.36,68.14,15.79,71a4.27,4.27,0,0,1-.24,4.72c-2,3-3.81,5.91-5.77,9L8,87.56l2.47,2.12C13,91.82,15.53,94,18.12,96.1c1.54,1.23,3,2.87,2.15,5.73a16.33,16.33,0,0,0-.48,2.85c0,.45-.1.91-.16,1.35L18.35,115l3.25,1c3.31,1,6.44,1.94,9.64,2.75a5.14,5.14,0,0,1,4.09,4.23c.8,3.2,1.69,6.32,2.64,9.62l.92,3.21h0c.55-.06,1.07-.11,1.58-.18l3.08-.41c3.09-.41,6.3-.83,9.43-1.3A5.55,5.55,0,0,1,53.84,133.78Z"/><path class="cls-1" d="M130.05,76.48A52.11,52.11,0,1,1,78.39,24.41C106.75,24.48,130.13,48,130.05,76.48ZM77.84,28.08a48.43,48.43,0,1,0,48.53,48.32A48.47,48.47,0,0,0,77.84,28.08Z"/><path class="cls-2" d="M77.88,129.62h-.21a53.11,53.11,0,1,1,.57-106.21h.15a53.19,53.19,0,0,1,52.66,53.08,53.23,53.23,0,0,1-53.17,53.13Zm.36-104.21a51.11,51.11,0,1,0-.56,102.21h.2a51.23,51.23,0,0,0,51.17-51.14h0A51.19,51.19,0,0,0,78.38,25.41Zm-.3,100.54a49.43,49.43,0,0,1-.09-98.87h.08A49.43,49.43,0,0,1,78,125.94Zm-.09-97.87v1a47.43,47.43,0,0,0,.09,94.87H78a47.43,47.43,0,0,0-.11-94.87h-.08Z"/></g></svg>