<svg version="1.1"
	 xmlns="http://www.w3.org/2000/svg" xmlns:xlink="http://www.w3.org/1999/xlink" xmlns:a="http://ns.adobe.com/AdobeSVGViewerExtensions/3.0/"
	 x="0px" y="0px" width="121.6px" height="120.6px" viewBox="0 0 121.6 120.6" style="enable-background:new 0 0 121.6 120.6;"
	 xml:space="preserve">
<style type="text/css">
	.st0{fill:#FFFFFF;}
	.st1{fill:#EAA533;}
</style>
<g>
	<g>
		<g>
			<g>
				<g>
					<polygon class="st0" points="73.7,54.3 69.6,54.3 57.9,81.1 63.2,81.1 65,76.7 65,76.7 68.4,68.5 71.5,60.7 75,69.5 75,69.5 
						77.8,76.2 79.8,81.2 85.1,81.2 					"/>
				</g>
			</g>
		</g>
	</g>
	<g>
		<path d="M73.6,36C73.6,36,73.6,36,73.6,36L73.6,36L73.6,36z M35.8,73.4C35.8,73.5,35.8,73.5,35.8,73.4L35.8,73.4L35.8,73.4z"/>
		<path class="st1" d="M52.9,91.6c-0.2-0.2-1.7-1.6-1.8-1.8c-10-11-10-27.7,0.8-38.3c10.7-10.7,28.1-10.9,38.8-0.4
			c0.1,0.1,1.6,1.7,1.7,1.8l10.1-11.1l19.2-21L89,41.8l-0.5-13.2l-10.2,9.1L71.5,0l-7.8,37.7l-9.5-9.3l-1.7,13.8
			c-0.2,0.2-31.3-21.7-31.3-21.7L41.7,53l-13.6,0.4L37,64.1L0,70.3l37.1,7.2l-9.6,9.6l13.3,0.7L20,120.6 M74.5,37
			C74.5,37,74.5,37,74.5,37L74.5,37L74.5,37z M36.7,74.7C36.7,74.7,36.7,74.7,36.7,74.7L36.7,74.7L36.7,74.7z"/>
	</g>
</g>
</svg>
