<svg version="1.1"
	 xmlns="http://www.w3.org/2000/svg" xmlns:xlink="http://www.w3.org/1999/xlink" xmlns:a="http://ns.adobe.com/AdobeSVGViewerExtensions/3.0/"
	 x="0px" y="0px" width="70.9px" height="70.9px" viewBox="0 0 70.9 70.9" style="enable-background:new 0 0 70.9 70.9;"
	 xml:space="preserve">
<style type="text/css">
	.st0{fill:#EBA634;}
</style>
<g>
	<g>
		<path class="st0" d="M60.1,70.9c0.8,0,1.4-0.6,1.4-1.4c0-0.8-0.6-1.4-1.4-1.4H10.9c-0.8,0-1.4,0.6-1.4,1.4c0,0.8,0.6,1.4,1.4,1.4
			H60.1z"/>
		<path class="st0" d="M69.5,62h-9.2V43.4c0-0.5-0.3-1-0.8-1.3l-14.8-7.5V1.4c0-0.5-0.3-1-0.7-1.2c-0.4-0.3-1-0.3-1.4-0.1L27,8.1
			c-0.5,0.2-0.8,0.7-0.8,1.3v14.2l-14.8,7.5c-0.5,0.2-0.8,0.7-0.8,1.3V62H1.4C0.6,62,0,62.6,0,63.4c0,0.8,0.6,1.4,1.4,1.4h68
			c0.8,0,1.4-0.6,1.4-1.4C70.9,62.6,70.3,62,69.5,62z M26.2,62H13.5V33.3l12.7-6.5V62z M41.8,35.5L41.8,35.5V62H29.1V24.4V10.3
			l12.7-6.5V35.5z M57.4,62H44.7V37.8l12.7,6.5V62z"/>
		<path class="st0" d="M48.7,60c0.6,0,1.1-0.5,1.1-1.1V43.1c0-0.6-0.5-1.1-1.1-1.1c-0.6,0-1.1,0.5-1.1,1.1v15.8
			C47.6,59.5,48.1,60,48.7,60z"/>
		<path class="st0" d="M53.5,60c0.6,0,1.1-0.5,1.1-1.1V47.7c0-0.6-0.5-1.1-1.1-1.1c-0.6,0-1.1,0.5-1.1,1.1v11.2
			C52.4,59.5,52.9,60,53.5,60z"/>
		<path class="st0" d="M22.3,60c0.6,0,1.1-0.5,1.1-1.1V32.4c0-0.6-0.5-1.1-1.1-1.1c-0.6,0-1.1,0.5-1.1,1.1v26.4
			C21.2,59.5,21.7,60,22.3,60z"/>
		<path class="st0" d="M17.4,60c0.6,0,1.1-0.5,1.1-1.1V37c0-0.6-0.5-1.1-1.1-1.1c-0.6,0-1.1,0.5-1.1,1.1v21.9
			C16.3,59.5,16.8,60,17.4,60z"/>
		<path class="st0" d="M38.1,60c0.6,0,1.1-0.5,1.1-1.1V9.8c0-0.6-0.5-1.1-1.1-1.1c-0.6,0-1.1,0.5-1.1,1.1v49.1
			C37,59.5,37.5,60,38.1,60z"/>
		<path class="st0" d="M32.8,60c0.6,0,1.1-0.5,1.1-1.1V14.6c0-0.6-0.5-1.1-1.1-1.1c-0.6,0-1.1,0.5-1.1,1.1v44.3
			C31.8,59.5,32.2,60,32.8,60z"/>
	</g>
</g>
</svg>
