<svg version="1.1"
	 xmlns="http://www.w3.org/2000/svg" xmlns:xlink="http://www.w3.org/1999/xlink" xmlns:a="http://ns.adobe.com/AdobeSVGViewerExtensions/3.0/"
	 x="0px" y="0px" width="83.7px" height="63.4px" viewBox="0 0 83.7 63.4" style="enable-background:new 0 0 83.7 63.4;"
	 xml:space="preserve">
<style type="text/css">
	.st0{fill:#EBA634;}
</style>
<g>
	<path class="st0" d="M16.8,35.5c-5.6,0-10.1,4.5-10.1,10.1c0,5.6,4.5,10.1,10.1,10.1c5.6,0,10.1-4.5,10.1-10.1
		C26.9,40,22.4,35.5,16.8,35.5z M16.8,53.1c-4.1,0-7.5-3.3-7.5-7.5c0-4.1,3.3-7.5,7.5-7.5s7.5,3.3,7.5,7.5
		C24.3,49.7,20.9,53.1,16.8,53.1z"/>
	<path class="st0" d="M16.8,41.5c-2.2,0-4.1,1.8-4.1,4.1c0,2.2,1.8,4.1,4.1,4.1c2.2,0,4.1-1.8,4.1-4.1
		C20.9,43.3,19.1,41.5,16.8,41.5z M16.8,47c-0.8,0-1.4-0.6-1.4-1.4c0-0.8,0.6-1.4,1.4-1.4c0.8,0,1.4,0.6,1.4,1.4
		C18.2,46.4,17.6,47,16.8,47z"/>
	<path class="st0" d="M72.4,38.2v-9.2c0-0.6-0.5-1.2-1.1-1.3l-11.8-2.1V14c0-2,1.6-3.6,3.6-3.6c0.7,0,1.3-0.6,1.3-1.3V5
		c0-0.7-0.6-1.3-1.3-1.3c-5.7,0-10.4,4.7-10.4,10.4v10.3L49,23.7L43.2,8h1.5C45.4,8,46,7.4,46,6.7V1.3C46,0.6,45.4,0,44.7,0H10.3
		C9.5,0,8.9,0.6,8.9,1.3v5.3C8.9,7.4,9.5,8,10.3,8h1.9v16.6H7.1c-0.7,0-1.3,0.6-1.3,1.3c0,0.1,0,0.1,0,0.2c0,0.1,0,0.1,0,0.2v6.7
		C2.2,36,0,40.5,0,45.6c0,9.3,7.5,16.8,16.8,16.8c7.7,0,14.3-5.2,16.2-12.4h25.4c0,0.2,0,0.5,0,0.7c0,7,5.7,12.7,12.7,12.7
		c7,0,12.7-5.7,12.7-12.7C83.7,44.2,78.7,38.9,72.4,38.2z M55.4,14c0-3.8,2.8-7,6.4-7.6v1.5c-2.8,0.6-5,3.1-5,6.2v11l-1.4-0.3V14z
		 M11.6,2.7h31.8v2.7h-2.1H13.5h-1.9V2.7z M16.8,59.8C9,59.8,2.7,53.4,2.7,45.6c0-7.8,6.4-14.2,14.2-14.2c7.8,0,14.2,6.4,14.2,14.2
		C31,53.4,24.6,59.8,16.8,59.8z M33.5,47.4c0.1-0.6,0.1-1.2,0.1-1.8c0-9.3-7.5-16.8-16.8-16.8c-3.1,0-5.9,0.8-8.4,2.3v-3.8h5.1
		c0.7,0,1.3-0.6,1.3-1.3V8h25.6l6.4,17.3c0.2,0.4,0.5,0.8,1,0.8l22,3.9v8.1c-5.3,0.5-9.6,4.3-11,9.2H33.5z M71,60.7
		c-5.5,0-10-4.5-10-10c0-5.5,4.5-10,10-10c5.5,0,10,4.5,10,10C81,56.3,76.5,60.7,71,60.7z"/>
	<path class="st0" d="M71,43c-4.3,0-7.8,3.5-7.8,7.8c0,4.3,3.5,7.8,7.8,7.8c4.3,0,7.8-3.5,7.8-7.8C78.8,46.5,75.3,43,71,43z
		 M71,55.8c-2.8,0-5.1-2.3-5.1-5.1c0-2.8,2.3-5.1,5.1-5.1c2.8,0,5.1,2.3,5.1,5.1C76.1,53.6,73.8,55.8,71,55.8z"/>
	<path class="st0" d="M71,47.4c-1.8,0-3.3,1.5-3.3,3.3c0,1.8,1.5,3.3,3.3,3.3c1.8,0,3.3-1.5,3.3-3.3C74.3,48.9,72.9,47.4,71,47.4z
		 M71,51.4c-0.4,0-0.7-0.3-0.7-0.7c0-0.4,0.3-0.7,0.7-0.7c0.4,0,0.7,0.3,0.7,0.7C71.7,51.1,71.4,51.4,71,51.4z"/>
	<path class="st0" d="M39.2,11.1c-0.2-0.5-0.7-0.8-1.2-0.8H18.7c-0.7,0-1.3,0.6-1.3,1.3v13.4c0,0.7,0.5,1.2,1.2,1.3
		c0.2,0,16.6,2.3,20.5,13.6c0.2,0.5,0.7,0.9,1.3,0.9h8.6c0.4,0,0.8-0.2,1.1-0.6c0.2-0.4,0.3-0.8,0.1-1.2L39.2,11.1z M41.1,38.1
		c-2-5-6.4-9-12.7-11.7c-3.5-1.5-6.7-2.2-8.4-2.6V12.9h17l9.8,25.2H41.1z"/>
</g>
</svg>
