<svg version="1.1"
	 xmlns="http://www.w3.org/2000/svg" xmlns:xlink="http://www.w3.org/1999/xlink" xmlns:a="http://ns.adobe.com/AdobeSVGViewerExtensions/3.0/"
	 x="0px" y="0px" width="141.5px" height="147.8px" viewBox="0 0 141.5 147.8" style="enable-background:new 0 0 141.5 147.8;"
	 xml:space="preserve">
<style type="text/css">
	.st0{fill:#308ECF;stroke:#FFFFFF;stroke-miterlimit:10;}
</style>
<g id="LRenfI.tif_1_">
	<g>
		<path class="st0" d="M141,141.1c0,2.2,0,4.1,0,6.2c-46.8,0-93.6,0-140.5,0c0-2,0-4,0-6.2c2.6,0,5.2-0.1,7.9,0
			c1.5,0.1,2.3-0.4,2.9-1.9c10-23.1,20-46.1,30.1-69.2c0.3-0.8,0.6-1.7,0.6-2.5c0-8.1,0-16.2,0-24.5c-0.4,0.3-0.7,0.5-1,0.7
			C30.5,53,20.1,62.4,9.6,71.7c-0.4,0.4-0.7,1.1-0.7,1.7c-0.1,1.5,0,3.1,0,4.8c-2.1,0-4.1,0-6.1,0c0-2.7,0-5.5,0-8.2
			c0-0.4,0.5-0.9,0.9-1.2c12.4-11.1,24.8-22.2,37.2-33.3c0.8-0.7,1.1-1.4,1.1-2.4c0-6.8,0-13.6,0-20.4c0-0.6,0-1.1,0-2
			c-0.5,0.4-0.8,0.6-1.1,0.8C30.5,20.9,20.1,30.2,9.7,39.5c-0.4,0.4-0.7,1.1-0.8,1.7c-0.1,1.5,0,2.9,0,4.5c-2.1,0-4.1,0-6.2,0
			c0-2.6-0.1-5.2,0-7.7c0-0.6,0.5-1.3,1-1.7C16.5,24.9,29.4,13.5,42.2,2.1c1.2-1.1,2.5-1.6,4.1-1.6c16.5,0,32.9,0,49.4,0.1
			c1.2,0,2.7,0.5,3.6,1.3C112,13.2,124.6,24.6,137.3,36c1,0.9,1.5,1.9,1.5,3.2c0,2.2,0,4.4,0,6.6c-2.1,0-4.1,0-6.3,0
			c0-1.7,0.1-3.3,0-4.9c0-0.6-0.3-1.3-0.7-1.6c-10.3-9.3-20.7-18.6-31.1-27.8c-0.2-0.2-0.5-0.4-1-0.8c0,0.7,0,1.2,0,1.6
			c0,6.9,0,13.9,0,20.8c0,1.1,0.3,1.9,1.2,2.6c11.9,10.7,23.8,21.4,35.8,32c1.3,1.1,1.9,2.4,1.8,4.1c-0.1,2.1,0,4.2,0,6.4
			c-2,0-3.9,0-6,0c0-1.6,0.1-3.2,0-4.8c0-0.6-0.3-1.4-0.7-1.7c-10.3-9.3-20.7-18.5-31-27.7c-0.2-0.2-0.5-0.4-0.9-0.7
			c0,0.6-0.1,1-0.1,1.4c0,7.5,0,14.9,0,22.4c0,0.8,0.2,1.6,0.5,2.4c10.2,23.5,20.4,46.9,30.6,70.4c0.4,0.9,0.9,1.3,1.9,1.3
			C135.5,141,138.1,141.1,141,141.1z M103.6,102.7c-0.7-0.4-1.2-0.7-1.6-0.9c-10-5.1-20-10.2-29.9-15.4c-1-0.5-1.7-0.5-2.7,0
			c-9.6,5-19.2,9.9-28.7,14.8c-0.9,0.5-1.9,1-3,1.6c0.7,0.3,1.2,0.5,1.8,0.7c9.6,3.8,19.1,7.5,28.7,11.4c1.7,0.7,3.2,0.7,5,0
			C83.1,110.8,93.3,106.9,103.6,102.7z M115.8,141c0-0.1,0-0.1,0.1-0.2c-0.2-0.1-0.5-0.2-0.7-0.3c-14.5-5.8-29-11.5-43.5-17.3
			c-0.7-0.3-1.7-0.2-2.3,0.1c-14.3,5.7-28.6,11.4-42.9,17.1c-0.4,0.2-0.7,0.3-1.5,0.7C55.5,141,85.6,141,115.8,141z M70.8,41.4
			c-7.1,8.9-14,17.7-21,26.6c0.3,0.2,0.4,0.3,0.5,0.4c6.5,3.3,13,6.7,19.5,10c0.5,0.2,1.3,0.2,1.9-0.1c6.4-3.3,12.8-6.6,19.2-9.9
			c0.3-0.2,0.6-0.3,1-0.6C84.9,58.9,78,50.2,70.8,41.4z M79.2,119.3c14.6,5.8,28.8,11.4,43.3,17.1c-4.3-10-8.5-19.6-12.7-29.3
			C99.7,111.1,89.7,115.1,79.2,119.3z M61.9,119.3c-10.3-4.1-20.3-8.1-30.4-12.1c-4.2,9.7-8.4,19.3-12.7,29.2
			C33.3,130.7,47.4,125.1,61.9,119.3z M70.9,31.2C77.3,23,83.7,15,90,7C77.2,7,64.5,7,51.7,7C58.2,15.1,64.5,23.1,70.9,31.2z
			 M66.8,36.4C60.6,28.5,54.4,20.8,48,12.8c0,16,0,31.5,0,47.4C54.4,52.1,60.6,44.3,66.8,36.4z M93.4,13c-0.3,0.3-0.5,0.4-0.6,0.6
			c-5.7,7.3-11.5,14.5-17.3,21.8c-0.7,0.8-0.3,1.3,0.2,1.9c5.6,7,11.2,14,16.7,21.1c0.3,0.3,0.4,0.7,0.6,1.1
			c0.1-0.1,0.2-0.2,0.4-0.4C93.4,43.8,93.4,28.5,93.4,13z M104.7,96.2c0.1-0.1,0.1-0.2,0.2-0.3c-3.2-7.5-6.5-15.1-9.8-22.7
			c-5.9,3-11.6,6-17.6,9C86.7,87,95.7,91.6,104.7,96.2z M46.4,73.2C43,81,39.7,88.5,36.3,96.4c9.4-4.8,18.4-9.4,27.6-14.2
			C58,79.2,52.3,76.3,46.4,73.2z"/>
	</g>
</g>
</svg>
